<svg width="21" height="15" viewBox="0 0 21 15" fill="none" xmlns="http://www.w3.org/2000/svg">
<path d="M17.4034 5.20166H17.0935L15.8827 2.17963C15.6665 1.6423 15.2946 1.18186 14.8148 0.857392C14.335 0.532928 13.7692 0.359252 13.19 0.358654H7.3784C6.7055 0.356729 6.05279 0.588398 5.53168 1.01412C5.01057 1.43984 4.65336 2.03322 4.52102 2.69299L4.01735 5.20166H3.843C3.07233 5.20166 2.33323 5.50781 1.78829 6.05275C1.24334 6.5977 0.937195 7.3368 0.937195 8.10747V11.0133C0.937195 11.2702 1.03924 11.5165 1.22089 11.6982C1.40254 11.8798 1.64891 11.9819 1.9058 11.9819H2.8744C2.8744 12.7525 3.18055 13.4916 3.72549 14.0366C4.27043 14.5815 5.00954 14.8877 5.7802 14.8877C6.55087 14.8877 7.28998 14.5815 7.83492 14.0366C8.37986 13.4916 8.68601 12.7525 8.68601 11.9819H12.5604C12.5604 12.7525 12.8666 13.4916 13.4115 14.0366C13.9565 14.5815 14.6956 14.8877 15.4662 14.8877C16.2369 14.8877 16.976 14.5815 17.5209 14.0366C18.0659 13.4916 18.372 12.7525 18.372 11.9819H19.3406C19.5975 11.9819 19.8439 11.8798 20.0255 11.6982C20.2072 11.5165 20.3092 11.2702 20.3092 11.0133V8.10747C20.3092 7.3368 20.0031 6.5977 19.4581 6.05275C18.9132 5.50781 18.1741 5.20166 17.4034 5.20166ZM11.5918 2.29586H13.19C13.3823 2.2976 13.5698 2.35656 13.7285 2.46524C13.8872 2.57392 14.01 2.72738 14.0811 2.90608L15.0013 5.20166H11.5918V2.29586ZM6.41948 3.07074C6.46477 2.84866 6.58649 2.6495 6.76347 2.50791C6.94046 2.36633 7.16148 2.29129 7.38808 2.29586H9.65461V5.20166H5.9933L6.41948 3.07074ZM5.7802 12.9505C5.58863 12.9505 5.40136 12.8937 5.24208 12.7872C5.08279 12.6808 4.95864 12.5295 4.88533 12.3525C4.81202 12.1756 4.79284 11.9808 4.83021 11.7929C4.86759 11.605 4.95984 11.4324 5.0953 11.297C5.23076 11.1615 5.40335 11.0693 5.59124 11.0319C5.77913 10.9945 5.97388 11.0137 6.15087 11.087C6.32786 11.1603 6.47914 11.2845 6.58557 11.4438C6.692 11.603 6.74881 11.7903 6.74881 11.9819C6.74881 12.2388 6.64676 12.4851 6.46511 12.6668C6.28346 12.8484 6.03709 12.9505 5.7802 12.9505ZM15.4662 12.9505C15.2747 12.9505 15.0874 12.8937 14.9281 12.7872C14.7688 12.6808 14.6447 12.5295 14.5714 12.3525C14.498 12.1756 14.4789 11.9808 14.5162 11.7929C14.5536 11.605 14.6459 11.4324 14.7813 11.297C14.9168 11.1615 15.0894 11.0693 15.2773 11.0319C15.4651 10.9945 15.6599 11.0137 15.8369 11.087C16.0139 11.1603 16.1652 11.2845 16.2716 11.4438C16.378 11.603 16.4348 11.7903 16.4348 11.9819C16.4348 12.2388 16.3328 12.4851 16.1511 12.6668C15.9695 12.8484 15.7231 12.9505 15.4662 12.9505ZM18.372 10.0447H17.6165C17.3442 9.74503 17.0122 9.50562 16.6419 9.34179C16.2716 9.17796 15.8711 9.09333 15.4662 9.09333C15.0613 9.09333 14.6609 9.17796 14.2906 9.34179C13.9203 9.50562 13.5883 9.74503 13.3159 10.0447H7.9305C7.65815 9.74503 7.32618 9.50562 6.95588 9.34179C6.58558 9.17796 6.18513 9.09333 5.7802 9.09333C5.37528 9.09333 4.97483 9.17796 4.60453 9.34179C4.23423 9.50562 3.90226 9.74503 3.62991 10.0447H2.8744V8.10747C2.8744 7.85058 2.97645 7.60421 3.1581 7.42257C3.33974 7.24092 3.58611 7.13887 3.843 7.13887H17.4034C17.6603 7.13887 17.9067 7.24092 18.0883 7.42257C18.27 7.60421 18.372 7.85058 18.372 8.10747V10.0447Z" fill="#6C61F6"/>
</svg>
