<svg width="136" height="48" viewBox="0 0 136 48" fill="none" xmlns="http://www.w3.org/2000/svg">
<g clip-path="url(#clip0_174_14697)">
<path d="M43.6106 11.9345C44.297 11.0708 44.9328 10.2714 45.5667 9.47202C46.4164 8.39968 47.2602 7.32344 48.1119 6.25499C49.4029 4.63673 51.0362 3.75351 53.1517 3.79445C55.2166 3.8354 57.2835 3.8042 59.4243 3.8042C59.2473 4.42421 59.0899 5.00523 58.9187 5.58234C56.7021 13.0088 54.4817 20.4353 52.2709 27.8637C52.1815 28.1659 52.0687 28.2946 51.7226 28.2926C49.5527 28.2731 47.3827 28.2731 45.2147 28.2926C44.8181 28.2965 44.7811 28.2068 44.892 27.8403C46.4611 22.6794 48.0146 17.5146 49.5701 12.3498C49.6226 12.1743 49.6713 11.9969 49.6615 11.7883C48.3919 13.3305 47.1222 14.8747 45.8544 16.4169C44.2036 18.4232 42.5431 20.4216 40.9137 22.4454C40.6026 22.8315 40.2915 22.9894 39.7996 22.9679C38.8235 22.9289 38.8371 22.9543 38.6524 21.9814C37.9952 18.4972 37.3283 15.0131 36.6497 11.449C36.4281 11.8253 36.3756 12.1763 36.2744 12.5097C34.7345 17.6257 33.1984 22.7437 31.6604 27.8598C31.5943 28.0801 31.5729 28.2965 31.2229 28.2926C28.9674 28.2731 26.7139 28.2829 24.4584 28.2809C24.4098 28.2809 24.3631 28.2614 24.2718 28.24C24.6898 26.844 25.1059 25.4558 25.522 24.0695C27.5033 17.4639 29.4885 10.8602 31.4621 4.25264C31.5593 3.92508 31.674 3.7925 32.0415 3.7964C34.3651 3.81785 36.6886 3.8042 39.0102 3.8081C40.906 3.812 42.2845 4.97013 42.6345 6.83016C42.9495 8.50301 43.2742 10.1739 43.6106 11.9384V11.9345Z" fill="#715BFF"/>
<path d="M102.969 11.5015C101.349 16.8963 99.7217 22.2892 98.1195 27.6899C97.9853 28.1403 97.8259 28.3041 97.332 28.2963C95.131 28.2632 92.928 28.2827 90.6608 28.2827C90.9894 27.183 91.3064 26.1263 91.6233 25.0695C93.4394 19.0196 95.2496 12.9677 97.0734 6.91965C97.6645 4.95824 99.2434 3.80791 101.271 3.80791C102.673 3.80791 104.073 3.80011 105.475 3.80791C107.281 3.8196 108.662 4.96799 109.004 6.74222C109.687 10.2829 110.361 13.8255 111.042 17.3662C111.067 17.4988 111.116 17.6275 111.176 17.84C111.684 16.1886 112.17 14.6132 112.652 13.0359C113.548 10.0957 114.443 7.15556 115.333 4.2154C115.405 3.97753 115.45 3.79426 115.786 3.79816C117.956 3.8157 120.126 3.80791 122.296 3.80986C122.345 3.80986 122.395 3.82935 122.487 3.84885C122.117 5.09667 121.754 6.33668 121.382 7.57475C119.374 14.2974 117.357 21.018 115.366 27.7465C115.244 28.1637 115.094 28.3002 114.655 28.2963C112.074 28.2729 109.494 28.2768 106.916 28.2944C106.56 28.2963 106.434 28.2047 106.362 27.844C105.403 23.034 104.425 18.228 103.453 13.42C103.325 12.7883 103.196 12.1566 103.068 11.5249C103.037 11.519 103.006 11.5112 102.975 11.5054L102.969 11.5015Z" fill="#715BFF"/>
<path d="M0.812766 28.2438C1.26192 26.4149 1.7169 24.5939 2.14856 22.767C2.23022 22.4219 2.45966 22.5116 2.65993 22.5116C5.49484 22.5077 8.3317 22.5058 11.1666 22.5116C12.3274 22.5116 13.4902 22.5175 14.6218 22.2036C15.4929 21.9618 16.0995 21.4627 16.2492 20.5054C16.364 19.7723 15.7806 19.0996 15.0243 19.1094C12.8563 19.1367 10.6883 19.1211 8.5592 18.6278C8.32781 18.5732 8.10227 18.4933 7.87283 18.425C6.7587 18.0955 6.01594 17.4424 5.59595 16.2901C4.91931 14.4262 4.60432 12.5759 5.24207 10.5755C4.19016 10.9947 3.29186 11.4918 2.58021 12.2795C2.45188 12.4199 2.32939 12.5583 2.14273 12.6207C2.01828 12.6636 1.90357 12.6324 1.80635 12.5564C1.69163 12.4647 1.70913 12.3322 1.76551 12.2288C3.21797 9.57137 4.60821 6.86127 7.35757 5.24496C9.28251 4.11217 11.3941 3.71443 13.5874 3.70468C17.7386 3.68714 21.888 3.70663 26.0392 3.68909C26.465 3.68909 26.5098 3.80412 26.4184 4.17457C26.0062 5.83182 25.6037 7.49103 25.2226 9.15608C25.1409 9.50898 24.999 9.60062 24.6431 9.60062C21.4155 9.59672 18.1878 9.61622 14.9601 9.62791C14.1668 9.62986 13.4046 9.79169 12.6618 10.0666C12.3021 10.1992 11.9774 10.3922 11.746 10.6964C10.9858 11.6927 10.875 13.1062 12.6968 13.5254C13.1324 13.6248 13.5796 13.5995 14.0229 13.5995C15.7126 13.5956 17.4042 13.5819 19.0744 13.8919C19.7297 14.0148 20.3636 14.2097 20.9469 14.547C22.1991 15.2704 22.759 16.4012 22.8465 17.807C22.9632 19.7001 22.3079 21.4022 21.5282 23.0692C20.7155 24.8084 19.6266 26.3058 17.8534 27.1948C16.4942 27.8772 15.0262 28.0781 13.5427 28.1638C9.36223 28.4037 5.17791 28.2379 0.993594 28.2789C0.944984 28.2789 0.89443 28.2613 0.810822 28.2438H0.812766Z" fill="#715BFF"/>
<path d="M120.371 28.2808C120.787 26.9044 121.188 25.5688 121.596 24.2332C123.62 17.6062 125.65 10.9791 127.657 4.34616C127.793 3.89773 127.985 3.78465 128.434 3.7905C130.519 3.81779 132.601 3.81389 134.686 3.79245C135.106 3.78855 135.156 3.88213 135.038 4.27597C132.858 11.4802 130.692 18.6902 128.524 25.8983C128.312 26.6002 128.09 27.3001 127.886 28.0059C127.832 28.1931 127.766 28.2847 127.546 28.2847C125.174 28.2769 122.8 28.2789 120.373 28.2789L120.371 28.2808Z" fill="#715BFF"/>
<path d="M88.6328 17.2299C88.5667 19.9049 87.7365 22.3811 86.2354 24.6369C85.8952 25.1477 85.5277 25.641 85.0727 26.0641C84.8899 26.2337 84.818 26.2103 84.713 26.0017C84.3358 25.251 83.8652 24.5589 83.3577 23.8921C83.1886 23.6679 83.0622 23.4047 83.1711 23.1259C83.3888 22.5741 83.1594 22.2036 82.7355 21.8917C82.6033 21.7942 82.4847 21.7065 82.6714 21.5388C83.3052 20.9695 83.4258 20.2208 83.3538 19.4273C83.3227 19.09 83.3694 18.9437 83.7602 18.9281C84.4174 18.9028 84.8335 18.5089 85.0299 17.7856C85.3371 16.647 85.2418 15.5161 84.923 14.3931C84.468 12.7924 83.6688 11.3671 82.6539 10.0647C81.8606 9.04698 81.1936 8.95729 80.0834 9.67869C79.8967 9.79957 79.8306 9.73718 79.7217 9.60655C79.2162 8.99629 78.5804 8.63559 77.7735 8.64144C77.544 8.64144 77.4974 8.5498 77.4818 8.33923C77.3943 7.13626 76.8849 6.59814 75.6755 6.60399C73.3267 6.61373 71.042 6.91789 69.1073 8.44257C68.7301 8.73892 68.386 9.07232 68.0729 9.43497C67.5732 10.016 67.509 10.5249 67.9251 11.1644C68.1371 11.49 68.0476 11.6031 67.7618 11.7824C67.1202 12.186 66.6341 12.728 66.5271 13.5177C66.4921 13.7809 66.358 13.8218 66.1421 13.777C65.5744 13.6542 65.1447 13.8413 64.8277 14.3288C64.715 14.5023 64.5419 14.6017 64.3144 14.6232C63.4492 14.7031 62.582 14.7869 61.7187 14.8961C61.3045 14.9488 61.4134 14.705 61.4503 14.4925C61.9228 11.8487 63.0681 9.53441 64.8783 7.5613C69.994 1.98512 78.6912 1.63807 84.2346 6.79701C87.1376 9.49931 88.5434 12.884 88.6562 16.8302C88.6601 16.9492 88.6426 17.0681 88.6309 17.2338L88.6328 17.2299Z" fill="#715BFF"/>
<path d="M0 31.1937C3.06824 31.0747 6.13648 30.9558 9.20277 30.8369C13.4143 30.6731 17.6258 30.5054 21.8374 30.3475C27.0036 30.1525 32.1718 29.9595 37.338 29.7762C42.932 29.5754 48.526 29.3804 54.12 29.1933C58.1449 29.0587 62.1698 28.9398 66.1946 28.817C66.3599 28.8111 66.5232 28.776 66.6866 28.8872C68.4151 30.0589 70.3167 30.8096 72.3544 31.2444H0.00972192C0.00583316 31.2288 0.00388877 31.2112 0 31.1956V31.1937Z" fill="#715BFF"/>
<path d="M98.2031 0.000244141C98.6172 0.00219385 99.0314 0.00414357 99.4455 0.008043C105.3 0.282953 111.155 0.561762 117.009 0.832772C122.49 1.08623 127.972 1.3319 133.453 1.58146C133.463 1.6653 133.424 1.71014 133.344 1.71014C131.781 1.6926 130.215 1.76668 128.652 1.67115C127.235 1.66335 125.817 1.65165 124.4 1.64775C120.352 1.63605 116.305 1.59511 112.257 1.62436C108.057 1.65555 103.855 1.58146 99.6594 1.78423C97.6314 1.88172 95.759 2.47833 94.464 4.21747C93.6629 5.29177 93.2721 6.55128 92.8774 7.8069C91.7516 11.3885 90.6278 14.9701 89.5 18.5518C89.4553 18.6941 89.4009 18.8345 89.327 18.969C89.4145 17.883 89.5156 16.8048 89.4281 15.711C89.3056 14.1981 88.9809 12.7397 88.415 11.3378C88.3062 11.0688 88.2945 10.8309 88.3645 10.5521C88.835 8.67452 89.4592 6.85739 90.3244 5.12214C91.6758 2.40814 93.939 0.932207 96.7915 0.23616C97.2542 0.123076 97.7325 0.0782327 98.2031 0.00219385V0.000244141Z" fill="#715BFF"/>
<path d="M62.5742 22.5585C63.5017 22.4727 64.433 22.3986 65.3624 22.2933C65.5977 22.2679 65.693 22.3693 65.8057 22.537C67.6665 25.3115 70.2545 26.9551 73.5347 27.5049C74.431 27.655 75.3371 27.6492 76.2393 27.5536C76.5951 27.5146 76.7662 27.6355 76.8829 27.9611C77.1337 28.6591 77.5362 29.2772 78.0184 29.8348C78.2634 30.1194 78.2148 30.1779 77.8707 30.2618C74.5263 31.0768 71.3686 30.5328 68.3743 28.9282C65.831 27.5673 63.9022 25.5922 62.6675 22.962C62.6247 22.8704 62.5878 22.7729 62.5567 22.6774C62.547 22.6481 62.5645 22.6111 62.5722 22.5565L62.5742 22.5585Z" fill="#715BFF"/>
<path d="M81.8158 24.3754C81.7653 24.0284 81.7944 23.7008 82.1814 23.578C82.5605 23.4571 82.7822 23.7047 82.965 23.9972C83.4549 24.7771 83.9546 25.5511 84.4369 26.3349C84.8024 26.9295 84.7596 27.1889 84.2035 27.5768C83.9371 27.764 83.9119 28.0233 83.8749 28.2885C83.8088 28.7642 83.5891 29.0508 83.068 29.0001C82.7394 28.9689 82.5839 29.1054 82.5139 29.4427C82.368 30.1583 82.1464 30.3279 81.4211 30.2986C81.1333 30.2869 80.9428 30.3786 80.76 30.5911C80.342 31.0766 80.0737 31.1253 79.5798 30.7744C78.3295 29.8853 77.4721 28.7038 77.021 27.2317C76.9393 26.9666 76.9451 26.6878 76.9938 26.4168C77.056 26.0756 77.231 25.8026 77.5926 25.7285C77.9562 25.6544 78.2732 25.7266 78.4443 26.1087C78.5959 26.2432 78.6251 26.4597 78.7651 26.6078C78.6679 26.4577 78.5629 26.3154 78.5687 26.1263C78.4131 25.4751 78.5551 24.9993 78.9634 24.7985C79.3737 24.5977 79.8403 24.7069 80.1748 25.0851C80.4373 25.3717 80.5364 25.7363 80.6861 26.0073C80.5656 25.6174 80.167 25.2118 80.3459 24.6757C80.692 23.9933 81.1489 23.8899 81.7147 24.3676C81.8586 24.4865 81.9111 24.664 81.9966 24.8199C81.9442 24.6679 81.843 24.5353 81.8119 24.3735L81.8158 24.3754Z" fill="#715BFF"/>
<path d="M65.7241 17.8831C66.1052 18.0858 66.4785 18.3198 66.4221 18.8209C66.3755 19.2479 66.2141 19.6417 65.7222 19.7606C65.3858 19.942 65.0144 19.9342 64.678 20.0102C65.0125 20.0141 65.3527 19.8269 65.7144 19.8698C66.1033 19.8484 66.4105 19.9556 66.5602 20.3592C66.7118 20.7647 66.5271 21.063 66.2588 21.3185C65.7377 21.8156 65.063 21.9326 64.3825 22.034C63.3383 22.19 62.3078 22.1627 61.3026 21.8176C60.7484 21.6285 60.6201 21.412 60.7542 20.8505C60.8301 20.5327 60.762 20.3007 60.5637 20.0511C60.1301 19.5091 60.132 19.2596 60.589 18.6961C60.7951 18.4426 60.8456 18.2418 60.6045 17.9883C60.2565 17.6198 60.3109 17.2358 60.6531 16.9063C60.9195 16.6489 61.0381 16.3798 61.007 16.0016C60.974 15.6019 61.2248 15.3445 61.6059 15.3016C62.6889 15.1769 63.7758 15.0794 64.8608 14.9838C65.0727 14.9643 65.2944 15.0423 65.3547 15.2685C65.4344 15.5707 65.4383 15.8807 65.1077 16.0679C64.7927 16.257 64.4389 16.2745 64.1083 16.3096C64.4972 16.3506 64.8919 16.064 65.3061 16.2472C65.9905 16.6742 66.0294 17.1831 65.4227 17.7173C65.3663 17.7817 65.2963 17.8324 65.2147 17.8538C64.9386 17.9299 64.6547 17.9708 64.433 18.041C64.8238 17.9903 65.2536 17.7602 65.7202 17.8831H65.7241Z" fill="#715BFF"/>
<path d="M66.9452 21.1975C67.1707 21.9072 66.8557 22.5155 66.811 23.2311C66.4144 22.9035 66.2316 22.5077 65.9866 22.1607C65.9224 22.069 66.006 22.0027 66.0683 21.9501C66.3463 21.7083 66.6282 21.4685 66.9452 21.1975Z" fill="#715BFF"/>
<path d="M76.6477 25.9333C76.6217 26.8081 76.1745 27.2475 75.306 27.2514C75.6969 26.7308 76.0099 26.2239 76.6477 25.9333Z" fill="#715BFF"/>
<path d="M128.652 1.66928C130.138 1.65953 131.621 1.65173 133.107 1.63808C133.221 1.63808 133.338 1.60104 133.453 1.57959C134.303 1.57959 135.15 1.57959 136 1.57959C136 1.64003 136 1.70242 136 1.76286C134.654 1.76286 133.309 1.76676 131.963 1.76286C131.042 1.76091 130.122 1.75116 129.2 1.73752C129.018 1.73557 128.823 1.79016 128.654 1.66928H128.652Z" fill="#715BFF"/>
<path d="M82.9863 19.4894C82.9825 19.1248 82.8114 18.9279 82.4633 18.846C81.8742 18.7057 81.3472 18.4346 80.8709 18.0603C78.9148 16.5298 77.9776 12.8097 79.4165 10.5091C79.607 10.203 79.5603 9.97678 79.3367 9.73112C79.1365 9.51275 78.9148 9.32363 78.6407 9.21835C77.5926 8.8167 77.4274 8.93174 77.0501 9.76816C75.8252 12.4841 71.1314 14.2837 68.6835 12.0532C68.5123 11.8973 68.3179 11.8914 68.1118 11.9713C67.5363 12.1936 66.8966 13.1314 66.8946 13.7592C66.8946 13.9893 66.9413 14.1238 67.1629 14.2779C67.9893 14.8511 68.524 15.6583 68.9809 16.5259C69.4593 17.4305 69.8987 18.3586 70.4878 19.1989C71.4523 20.5715 72.7142 21.4879 74.4038 21.7453C75.6035 21.9285 76.7838 21.7804 77.9601 21.5542C79.1306 21.328 80.2973 21.0414 81.4989 21.367C82.1697 21.5483 82.438 21.4177 82.7666 20.7899C82.9805 20.3805 82.9883 19.9398 82.9825 19.4914L82.9863 19.4894ZM74.1841 20.7957C72.8736 20.7977 71.81 19.7351 71.812 18.4249C71.812 17.1264 72.8892 16.0677 74.2036 16.0677C75.4849 16.0677 76.5427 17.1517 76.5563 18.4756C76.5699 19.7273 75.481 20.7918 74.1861 20.7957H74.1841Z" fill="#715BFF"/>
<path d="M74.1763 16.4637C75.2671 16.4578 76.1635 17.343 76.1654 18.4329C76.1693 19.513 75.3099 20.3982 74.2405 20.4157C73.138 20.4352 72.2125 19.5676 72.1892 18.4953C72.1658 17.3761 73.0505 16.4695 74.1744 16.4637H74.1763Z" fill="#715BFF"/>
<path d="M3.6885 38.402H5.64844L9.35055 47.8347H7.7056L6.86951 45.6491H2.41298L1.5769 47.8347H0L3.6885 38.402ZM6.36203 44.3428L5.30623 41.58C5.18373 41.2505 4.86679 40.3283 4.67625 39.7375H4.59458C4.4157 40.2873 4.11432 41.1667 3.95099 41.58L2.9088 44.3428H6.36397H6.36203Z" fill="#715BFF"/>
<path d="M10.3111 44.3018V38.4039H11.8471V44.3447C11.8471 45.9123 12.7105 46.6961 14.2057 46.6961C15.7009 46.6961 16.6187 45.9123 16.6187 44.3447V38.4039H18.1547V44.3018C18.1547 46.8462 16.6731 48.0004 14.2057 48.0004C11.7383 48.0004 10.3111 46.8462 10.3111 44.3018Z" fill="#715BFF"/>
<path d="M22.6365 39.7219H19.5236V38.402H27.3128V39.7219H24.1726V47.8347H22.6365V39.7219Z" fill="#715BFF"/>
<path d="M27.9428 43.1183C27.9428 39.8174 29.7258 38.2362 32.6598 38.2362C35.5939 38.2362 37.3905 39.8174 37.3905 43.1183C37.3905 46.4192 35.6075 48.0004 32.6598 48.0004C29.7122 48.0004 27.9428 46.4192 27.9428 43.1183ZM35.8136 43.284V42.9818C35.8136 40.6441 34.6489 39.5445 32.6598 39.5445C30.6707 39.5445 29.5333 40.6441 29.5333 42.9818V43.284C29.5333 45.5944 30.6843 46.6941 32.6598 46.6941C34.6353 46.6941 35.8136 45.5944 35.8136 43.284Z" fill="#715BFF"/>
<path d="M38.596 43.4342H42.0648V44.8088H38.596V43.4342Z" fill="#715BFF"/>
<path d="M46.535 38.402H48.9343L50.7582 44.1224C50.9234 44.645 51.1004 45.3878 51.1976 45.7992H51.3065C51.3745 45.3995 51.5398 44.6723 51.7051 44.1088L53.5425 38.402H55.9011V47.8347H54.3786V42.6641C54.3786 41.619 54.4195 40.2854 54.4331 40.0105H54.3242C54.2425 40.3263 53.9547 41.4123 53.7759 42.0187L51.8704 47.8347H50.5132L48.6077 42.0323C48.4424 41.5098 48.2091 40.6169 48.073 40.0105H47.9641C47.9913 40.6851 48.0185 41.8939 48.0185 42.6641V47.8347H46.5369V38.402H46.535Z" fill="#715BFF"/>
<path d="M57.6802 43.1183C57.6802 39.8174 59.4632 38.2362 62.3973 38.2362C65.3313 38.2362 67.128 39.8174 67.128 43.1183C67.128 46.4192 65.345 48.0004 62.3973 48.0004C59.4496 48.0004 57.6802 46.4192 57.6802 43.1183ZM65.5511 43.284V42.9818C65.5511 40.6441 64.3864 39.5445 62.3973 39.5445C60.4082 39.5445 59.2707 40.6441 59.2707 42.9818V43.284C59.2707 45.5944 60.4218 46.6941 62.3973 46.6941C64.3728 46.6941 65.5511 45.5944 65.5511 43.284Z" fill="#715BFF"/>
<path d="M70.8709 39.7219H67.7579V38.402H75.5471V39.7219H72.407V47.8347H70.8709V39.7219Z" fill="#715BFF"/>
<path d="M76.1771 43.1183C76.1771 39.8174 77.9601 38.2362 80.8942 38.2362C83.8282 38.2362 85.6249 39.8174 85.6249 43.1183C85.6249 46.4192 83.8419 48.0004 80.8942 48.0004C77.9465 48.0004 76.1771 46.4192 76.1771 43.1183ZM84.048 43.284V42.9818C84.048 40.6441 82.8833 39.5445 80.8942 39.5445C78.9051 39.5445 77.7676 40.6441 77.7676 42.9818V43.284C77.7676 45.5944 78.9187 46.6941 80.8942 46.6941C82.8697 46.6941 84.048 45.5944 84.048 43.284Z" fill="#715BFF"/>
<path d="M90.2039 38.402H97.4992V39.7219H91.74V42.3482H96.8965V43.6682H91.74V46.5148H97.5809V47.8347H90.2039V38.402ZM94.3863 35.9005H95.9768L95.9904 35.9415L94.4952 37.7157H93.2333L94.3843 35.9005H94.3863Z" fill="#715BFF"/>
<path d="M98.9925 43.1183C98.9925 39.833 100.665 38.2362 103.531 38.2362C105.903 38.2362 107.672 39.4041 107.672 41.8393H106.109C106.109 40.3263 105.08 39.5425 103.544 39.5425C101.612 39.5425 100.583 40.6558 100.583 42.9799V43.2821C100.583 45.6198 101.598 46.6921 103.544 46.6921C105.135 46.6921 106.163 45.922 106.163 44.409H107.672C107.672 46.8559 105.889 47.9984 103.517 47.9984C100.637 47.9984 98.9925 46.4718 98.9925 43.1163V43.1183Z" fill="#715BFF"/>
<path d="M108.932 43.1183C108.932 39.8174 110.715 38.2362 113.649 38.2362C116.583 38.2362 118.38 39.8174 118.38 43.1183C118.38 46.4192 116.597 48.0004 113.649 48.0004C110.702 48.0004 108.932 46.4192 108.932 43.1183ZM116.803 43.284V42.9818C116.803 40.6441 115.638 39.5445 113.649 39.5445C111.66 39.5445 110.523 40.6441 110.523 42.9818V43.284C110.523 45.5944 111.674 46.6941 113.649 46.6941C115.625 46.6941 116.803 45.5944 116.803 43.284Z" fill="#715BFF"/>
<path d="M120.147 38.402H121.683V46.5011H126.373V47.8347H120.147V38.402Z" fill="#715BFF"/>
<path d="M127.715 38.402H135.01V39.7219H129.251V42.3482H134.408V43.6682H129.251V46.5147H135.092V47.8347H127.715V38.402Z" fill="#715BFF"/>
</g>
<defs>
<clipPath id="clip0_174_14697">
<rect width="136" height="48" fill="white"/>
</clipPath>
</defs>
</svg>
