<svg width="24" height="25" viewBox="0 0 24 25" fill="none" xmlns="http://www.w3.org/2000/svg">
<path d="M12.71 11.79C12.6149 11.699 12.5028 11.6276 12.38 11.58C12.1365 11.48 11.8635 11.48 11.62 11.58C11.4972 11.6276 11.3851 11.699 11.29 11.79L9.29 13.79C9.1017 13.9783 8.99591 14.2337 8.99591 14.5C8.99591 14.7663 9.1017 15.0217 9.29 15.21C9.4783 15.3983 9.7337 15.5041 10 15.5041C10.2663 15.5041 10.5217 15.3983 10.71 15.21L11 14.91V17.5C11 17.7652 11.1054 18.0196 11.2929 18.2071C11.4804 18.3946 11.7348 18.5 12 18.5C12.2652 18.5 12.5196 18.3946 12.7071 18.2071C12.8946 18.0196 13 17.7652 13 17.5V14.91L13.29 15.21C13.383 15.3037 13.4936 15.3781 13.6154 15.4289C13.7373 15.4797 13.868 15.5058 14 15.5058C14.132 15.5058 14.2627 15.4797 14.3846 15.4289C14.5064 15.3781 14.617 15.3037 14.71 15.21C14.8037 15.117 14.8781 15.0064 14.9289 14.8846C14.9797 14.7627 15.0058 14.632 15.0058 14.5C15.0058 14.368 14.9797 14.2373 14.9289 14.1154C14.8781 13.9936 14.8037 13.883 14.71 13.79L12.71 11.79ZM20 9.44C19.9896 9.34813 19.9695 9.25763 19.94 9.17V9.08C19.8919 8.97718 19.8278 8.88267 19.75 8.8L13.75 2.8C13.6673 2.72222 13.5728 2.65808 13.47 2.61H13.37C13.2728 2.558 13.1683 2.52092 13.06 2.5H7C6.20435 2.5 5.44129 2.81607 4.87868 3.37868C4.31607 3.94129 4 4.70435 4 5.5V19.5C4 20.2956 4.31607 21.0587 4.87868 21.6213C5.44129 22.1839 6.20435 22.5 7 22.5H17C17.7956 22.5 18.5587 22.1839 19.1213 21.6213C19.6839 21.0587 20 20.2956 20 19.5V9.5C20 9.5 20 9.5 20 9.44ZM14 5.91L16.59 8.5H15C14.7348 8.5 14.4804 8.39464 14.2929 8.20711C14.1054 8.01957 14 7.76522 14 7.5V5.91ZM18 19.5C18 19.7652 17.8946 20.0196 17.7071 20.2071C17.5196 20.3946 17.2652 20.5 17 20.5H7C6.73478 20.5 6.48043 20.3946 6.29289 20.2071C6.10536 20.0196 6 19.7652 6 19.5V5.5C6 5.23478 6.10536 4.98043 6.29289 4.79289C6.48043 4.60536 6.73478 4.5 7 4.5H12V7.5C12 8.29565 12.3161 9.05871 12.8787 9.62132C13.4413 10.1839 14.2044 10.5 15 10.5H18V19.5Z" fill="#191821"/>
</svg>
