<svg width="14" height="15" viewBox="0 0 14 15" fill="none" xmlns="http://www.w3.org/2000/svg">
<path d="M7.53659 9.2501C7.52494 9.21426 7.50718 9.18071 7.48409 9.15093L7.41409 9.06343C7.35986 9.00876 7.29534 8.96536 7.22426 8.93575C7.15317 8.90613 7.07693 8.89088 6.99992 8.89088C6.92292 8.89088 6.84667 8.90613 6.77559 8.93575C6.7045 8.96536 6.63998 9.00876 6.58576 9.06343C6.55795 9.08872 6.53432 9.11825 6.51576 9.15093C6.49267 9.18071 6.47491 9.21426 6.46326 9.2501C6.44636 9.28519 6.43458 9.32251 6.42826 9.36093C6.4254 9.39782 6.4254 9.43488 6.42826 9.47177C6.42623 9.55017 6.44219 9.62799 6.47492 9.69927C6.53428 9.84113 6.64726 9.95381 6.78927 10.0128C6.93129 10.0718 7.09085 10.0723 7.23326 10.0143C7.30415 9.98256 7.36922 9.93918 7.42576 9.88593C7.47823 9.83218 7.51982 9.7688 7.54826 9.69927C7.5789 9.62733 7.59477 9.54996 7.59492 9.47177C7.59778 9.43488 7.59778 9.39782 7.59492 9.36093C7.58129 9.32121 7.56162 9.28382 7.53659 9.2501ZM6.99992 4.79343C6.84521 4.79343 6.69684 4.85489 6.58744 4.96429C6.47805 5.07368 6.41659 5.22206 6.41659 5.37677V7.12677C6.41659 7.28147 6.47805 7.42985 6.58744 7.53924C6.69684 7.64864 6.84521 7.7101 6.99992 7.7101C7.15463 7.7101 7.303 7.64864 7.4124 7.53924C7.5218 7.42985 7.58326 7.28147 7.58326 7.12677V5.37677C7.58326 5.22206 7.5218 5.07368 7.4124 4.96429C7.303 4.85489 7.15463 4.79343 6.99992 4.79343ZM11.4508 2.62927C11.383 2.57444 11.3038 2.53551 11.219 2.51532C11.1342 2.49513 11.046 2.4942 10.9608 2.5126C10.3374 2.64323 9.69395 2.6449 9.06996 2.51749C8.44596 2.39008 7.85465 2.1363 7.33242 1.77177C7.23477 1.70402 7.11877 1.66772 6.99992 1.66772C6.88108 1.66772 6.76507 1.70402 6.66742 1.77177C6.1452 2.1363 5.55388 2.39008 4.92989 2.51749C4.30589 2.6449 3.66242 2.64323 3.03909 2.5126C2.95389 2.4942 2.86564 2.49513 2.78085 2.51532C2.69605 2.53551 2.61686 2.57444 2.54909 2.62927C2.48141 2.68417 2.42689 2.75354 2.38954 2.83227C2.35219 2.91101 2.33296 2.99712 2.33326 3.08427V7.4301C2.33274 8.26645 2.53204 9.09083 2.91457 9.83458C3.2971 10.5783 3.85178 11.2199 4.53242 11.7059L6.66159 13.2226C6.76038 13.2929 6.87864 13.3307 6.99992 13.3307C7.1212 13.3307 7.23946 13.2929 7.33826 13.2226L9.46742 11.7059C10.1481 11.2199 10.7028 10.5783 11.0853 9.83458C11.4678 9.09083 11.6671 8.26645 11.6666 7.4301V3.08427C11.6669 2.99712 11.6477 2.91101 11.6103 2.83227C11.573 2.75354 11.5184 2.68417 11.4508 2.62927ZM10.4999 7.4301C10.5004 8.08037 10.3455 8.72135 10.0482 9.29969C9.75093 9.87803 9.31982 10.377 8.79076 10.7551L6.99992 12.0326L5.20909 10.7551C4.68003 10.377 4.24891 9.87803 3.95163 9.29969C3.65434 8.72135 3.49947 8.08037 3.49992 7.4301V3.7551C4.72284 3.85977 5.94761 3.57603 6.99992 2.94427C8.05223 3.57603 9.27701 3.85977 10.4999 3.7551V7.4301Z" fill="#F75555"/>
</svg>
