<svg width="80" height="80" viewBox="0 0 80 80" fill="none" xmlns="http://www.w3.org/2000/svg">
<path d="M13.2367 39.1184C-1.54407 47.6511 -1.54247 61.4879 13.2367 70.0207C28.0159 78.5535 51.9807 78.5535 66.7615 70.0207C81.5423 61.4879 81.5407 47.6511 66.7615 39.1184C51.9823 30.5856 28.0175 30.5856 13.2367 39.1184Z" fill="#F5F5F5"/>
<path d="M19.536 66.9536L20.5056 66.3936L14.8336 65.8672L15.7472 69.1408L16.7168 68.5824L28.6272 75.4144C31.001 75.8422 33.3975 76.1328 35.8048 76.2848L19.536 66.9536Z" fill="#EBEBEB"/>
<path d="M35.9648 43.2195L73.5008 64.7507C74.1407 64.0474 74.7289 63.2988 75.2608 62.5107L38.784 41.6003L39.7536 41.0403L34.08 40.5059L34.9936 43.7795L35.9648 43.2195Z" fill="#EBEBEB"/>
<path d="M13.4944 55.0104L7.82397 54.4824L8.73597 57.7608L9.70557 57.2008L43.0992 76.3464C44.752 76.2696 46.3968 76.1304 48.024 75.9272L12.5248 55.5704L13.4944 55.0104Z" fill="#EBEBEB"/>
<path d="M71.84 51.8852L72.8 51.3268L67.1296 50.7988L68.048 54.0788L69.016 53.5188L77.304 58.2724C77.5896 57.3132 77.7636 56.3243 77.8224 55.3252L71.84 51.8852Z" fill="#EBEBEB"/>
<path d="M71.0129 67.0993L59.5905 60.5473L60.5585 59.9873L54.8881 59.4609L55.8017 62.7345L56.7697 62.1761L68.5345 68.9233C69.3921 68.3593 70.2193 67.7505 71.0129 67.0993Z" fill="#EBEBEB"/>
<path d="M61.3056 48.742C61.3056 48.742 60.7408 44.014 62.6336 39.5052C63.6912 36.9852 65.432 35.8796 66.4736 35.8252C67.6352 35.7564 68.7504 36.9084 67.6416 38.5452C66.5872 40.1052 64.672 40.6636 63.36 44.8028C62.496 47.5324 62.5168 49.366 62.5168 49.366L61.3056 48.742Z" fill="#9E9E9E"/>
<path opacity="0.5" d="M61.3056 48.742C61.3056 48.742 60.7408 44.014 62.6336 39.5052C63.6912 36.9852 65.432 35.8796 66.4736 35.8252C67.6352 35.7564 68.7504 36.9084 67.6416 38.5452C66.5872 40.1052 64.672 40.6636 63.36 44.8028C62.496 47.5324 62.5168 49.366 62.5168 49.366L61.3056 48.742Z" fill="white"/>
<path d="M62.0801 47.5923C62.0896 47.5921 62.099 47.59 62.1077 47.5861C62.1163 47.5821 62.1241 47.5765 62.1306 47.5695C62.137 47.5624 62.1419 47.5542 62.1451 47.5452C62.1482 47.5362 62.1495 47.5266 62.1489 47.5171C61.9041 42.3603 64.5889 38.1939 66.5729 36.8803C66.5809 36.8753 66.5878 36.8687 66.5932 36.8609C66.5986 36.8532 66.6024 36.8444 66.6043 36.8351C66.6063 36.8259 66.6063 36.8163 66.6045 36.8071C66.6027 36.7978 66.599 36.789 66.5937 36.7811C66.5885 36.7731 66.5817 36.7661 66.5738 36.7607C66.5659 36.7553 66.557 36.7515 66.5476 36.7495C66.5383 36.7476 66.5286 36.7476 66.5192 36.7494C66.5098 36.7513 66.5008 36.755 66.4929 36.7603C64.4801 38.0915 61.7601 42.3107 62.0065 47.5203C62.0065 47.5299 62.0084 47.5394 62.0121 47.5483C62.0158 47.5571 62.0213 47.5651 62.0281 47.5718C62.035 47.5785 62.0431 47.5838 62.052 47.5873C62.0609 47.5908 62.0705 47.5925 62.0801 47.5923Z" fill="white"/>
<path d="M62.5121 49.3644C62.7425 48.1932 63.456 47.0156 64.92 45.8012C66.384 44.5868 68.3664 43.5116 68.1456 42.3548C67.9248 41.198 66.3856 41.3516 65.288 41.9212C64.1904 42.4908 61.656 44.846 61.9088 49.054L62.5121 49.3644Z" fill="#9E9E9E"/>
<path opacity="0.65" d="M62.5121 49.3644C62.7425 48.1932 63.456 47.0156 64.92 45.8012C66.384 44.5868 68.3664 43.5116 68.1456 42.3548C67.9248 41.198 66.3856 41.3516 65.288 41.9212C64.1904 42.4908 61.656 44.846 61.9088 49.054L62.5121 49.3644Z" fill="white"/>
<path d="M62.288 48.0313C62.3049 48.0304 62.321 48.0237 62.3335 48.0124C62.346 48.001 62.3543 47.9857 62.3568 47.9689C62.688 45.4857 65.7296 42.5178 67.0832 42.113C67.1016 42.1071 67.1169 42.0942 67.1258 42.0772C67.1348 42.0601 67.1367 42.0402 67.1312 42.0217C67.1257 42.0035 67.1131 41.9882 67.0963 41.9792C67.0795 41.9702 67.0599 41.9683 67.0416 41.9737C65.6224 42.3993 62.5616 45.3689 62.2128 47.9497C62.2105 47.9688 62.2158 47.988 62.2274 48.0032C62.2391 48.0185 62.2562 48.0286 62.2752 48.0313H62.288Z" fill="white"/>
<path d="M59.4 52.2174C58.1436 52.677 56.948 53.2885 55.84 54.0382C54.592 54.8814 53.4512 55.899 52.1216 56.5982C50.392 57.507 48.4048 57.8366 46.4576 57.7438C45.3552 57.691 44.1568 57.4494 43.448 56.5806C43.2866 56.353 43.2096 56.0763 43.2304 55.7982C43.2285 55.5953 43.2691 55.3942 43.3495 55.2079C43.43 55.0217 43.5485 54.8543 43.6976 54.7166C45.2976 53.1582 47.5376 52.5166 49.6848 52.0142C51.832 51.5118 53.1296 50.8798 55.2432 49.7598C56.1488 49.2798 57.04 48.7582 57.952 48.3022L57.9728 48.291C59.4368 47.563 60.7952 46.6126 62.4528 47.4766C63.2688 47.9006 63.7232 48.7102 63.3392 49.595C62.6752 51.1326 60.8432 51.6926 59.4 52.2174Z" fill="#E0E0E0"/>
<path d="M25.2064 48.4199L16 53.7351L28.0176 60.6871L28.0608 60.6599L28.3952 60.4679C28.504 60.4023 28.608 60.3415 28.7152 60.2823C30.3152 59.3543 31.4464 58.6711 31.3584 58.1511C31.296 57.7559 30.5808 57.5319 29.9904 57.4615C29.6707 57.4352 29.3598 57.3438 29.0768 57.1927C28.9706 57.1445 28.8796 57.0682 28.8136 56.9721C28.7476 56.8759 28.7092 56.7635 28.7024 56.6471C28.7024 56.4023 28.8816 56.1479 29.2288 55.9463C29.8688 55.5767 30.8288 55.5383 31.3904 55.8583C31.6005 55.9752 31.763 56.162 31.8496 56.3863C31.9499 56.6206 32.1168 56.8202 32.3296 56.9604C32.5423 57.1007 32.7916 57.1753 33.0464 57.1751C33.9936 57.2279 35.0528 56.6167 36.7968 55.6039L37.2128 55.3639L25.2064 48.4199ZM48.0368 61.6135C47.6592 61.8295 47.2944 62.0343 46.936 62.2295C45.9104 62.7991 45.0896 63.2567 44.7296 63.6391C44.6664 63.6921 44.6161 63.7589 44.5828 63.8343C44.5496 63.9098 44.5341 63.9919 44.5376 64.0743C44.6016 64.4679 45.3168 64.6935 45.9072 64.7639C46.2267 64.7888 46.5377 64.8792 46.8208 65.0295C46.9099 65.0792 46.9899 65.1436 47.0576 65.2199C47.1456 65.3188 47.195 65.446 47.1968 65.5783C47.1968 65.8215 47.0144 66.0775 46.6656 66.2759C46.0256 66.6471 45.0656 66.6839 44.5072 66.3655C44.2969 66.2492 44.1339 66.063 44.0464 65.8391C43.9216 65.4967 43.5344 65.0839 42.848 65.0471C42.048 65.0007 41.224 65.5015 39.968 66.2615L39.4608 66.5607C39.2624 66.6791 39.0576 66.8023 38.8384 66.9303L52.9952 75.0903C53.3008 75.0247 53.6032 74.9591 53.9056 74.8903C57.6079 74.0715 61.2011 72.8203 64.6112 71.1623L48.0368 61.6135Z" fill="#E0E0E0"/>
<path d="M14.6768 26.4925L13.9024 26.3773C13.8527 26.3657 13.8068 26.3411 13.7697 26.3059C13.7326 26.2708 13.7055 26.2264 13.6912 26.1773C13.6541 26.0393 13.6059 25.9044 13.5472 25.7741C13.5344 25.7114 13.5378 25.6464 13.5572 25.5854C13.5765 25.5243 13.6111 25.4692 13.6576 25.4253L14.0512 24.9933C14.152 24.8829 14.1872 24.7421 14.1296 24.6733L13.5312 24.0253C13.472 23.9613 13.3312 23.9757 13.2112 24.0573L12.7024 24.4189C12.655 24.4569 12.5991 24.4828 12.5394 24.4942C12.4797 24.5056 12.4181 24.5023 12.36 24.4845C12.2247 24.4088 12.0834 24.344 11.9376 24.2909C11.8914 24.2678 11.8522 24.2328 11.8241 24.1895C11.7959 24.1462 11.7799 24.0961 11.7776 24.0445L11.7424 23.3341C11.7412 23.2833 11.7215 23.2347 11.6871 23.1973C11.6526 23.1599 11.6058 23.1363 11.5552 23.1309L10.6912 23.0957C10.6361 23.1008 10.5843 23.1248 10.5447 23.1635C10.5051 23.2023 10.48 23.2535 10.4736 23.3085L10.36 23.9613C10.3472 24.023 10.3184 24.0803 10.2766 24.1274C10.2348 24.1746 10.1814 24.21 10.1216 24.2301C10.0063 24.2634 9.89303 24.3034 9.78244 24.3501C9.73293 24.3755 9.67808 24.3888 9.62244 24.3888C9.56679 24.3888 9.51194 24.3755 9.46244 24.3501L8.85924 23.8285C8.79524 23.7709 8.65284 23.8045 8.53924 23.9021L8.02084 24.3597C7.91204 24.4573 7.86084 24.5917 7.91684 24.6637L8.38084 25.3037C8.40264 25.3621 8.40996 25.425 8.40216 25.4868C8.39436 25.5487 8.37167 25.6077 8.33604 25.6589C8.29124 25.7373 8.25284 25.8189 8.21604 25.9005C8.19373 25.9607 8.15696 26.0146 8.10898 26.0572C8.06099 26.0999 8.00325 26.1302 7.94084 26.1453L7.18564 26.1949C7.13193 26.203 7.08268 26.2294 7.04622 26.2696C7.00977 26.3098 6.98836 26.3615 6.98564 26.4157L6.93764 27.1933C6.93101 27.2451 6.94365 27.2975 6.97315 27.3406C7.00265 27.3836 7.04696 27.4144 7.09764 27.4269L7.87364 27.5421C7.92337 27.5532 7.96921 27.5775 8.00636 27.6124C8.0435 27.6473 8.07061 27.6916 8.08484 27.7405C8.12201 27.8785 8.17017 28.0134 8.22884 28.1437C8.24165 28.2064 8.23824 28.2714 8.21892 28.3324C8.1996 28.3935 8.16501 28.4486 8.11844 28.4925L7.72484 28.9245C7.62244 29.0349 7.58884 29.1757 7.64644 29.2445L8.24484 29.8941C8.30404 29.9565 8.44324 29.9421 8.56484 29.8605L9.07364 29.5005C9.12045 29.462 9.17609 29.4357 9.23557 29.424C9.29505 29.4122 9.3565 29.4154 9.41444 29.4333C9.55004 29.5097 9.69188 29.5745 9.83844 29.6269C9.88489 29.6501 9.92425 29.6854 9.9524 29.729C9.98055 29.7726 9.99645 29.823 9.99844 29.8749L10.0336 30.5853C10.0349 30.6359 10.0547 30.6844 10.0891 30.7215C10.1236 30.7586 10.1704 30.7819 10.2208 30.7869L11.0848 30.8221C11.1398 30.8176 11.1915 30.794 11.2309 30.7554C11.2703 30.7169 11.2951 30.6658 11.3008 30.6109L11.416 29.9565C11.4291 29.8949 11.4579 29.8377 11.4997 29.7906C11.5415 29.7434 11.5948 29.708 11.6544 29.6877C11.7697 29.6542 11.8829 29.6141 11.9936 29.5677C12.0433 29.5427 12.0981 29.5296 12.1536 29.5296C12.2092 29.5296 12.264 29.5427 12.3136 29.5677L12.9152 30.0797C12.9808 30.1357 13.1216 30.1021 13.2352 30.0061L13.7536 29.5469C13.8624 29.4509 13.9136 29.3149 13.8576 29.2445L13.3936 28.6045C13.3718 28.5458 13.3645 28.4827 13.3723 28.4206C13.3801 28.3585 13.4028 28.2992 13.4384 28.2477C13.4816 28.1693 13.5216 28.0877 13.5584 28.0061C13.5805 27.9459 13.6172 27.8921 13.6652 27.8496C13.7133 27.8072 13.7712 27.7774 13.8336 27.7629L14.5888 27.7117C14.6427 27.7039 14.6921 27.6776 14.7286 27.6373C14.7651 27.597 14.7864 27.5452 14.7888 27.4909L14.8368 26.7133C14.8402 26.6636 14.8261 26.6143 14.7968 26.5739C14.7676 26.5336 14.7251 26.5047 14.6768 26.4925ZM12.5808 27.0237C12.5464 27.4705 12.3394 27.8863 12.0037 28.1831C11.6681 28.48 11.2301 28.6345 10.7824 28.6141C10.5636 28.6084 10.3481 28.5589 10.1488 28.4684C9.94946 28.378 9.77032 28.2484 9.622 28.0874C9.47368 27.9264 9.3592 27.7372 9.28534 27.5311C9.21148 27.3251 9.17975 27.1063 9.19204 26.8877C9.22649 26.4409 9.43345 26.0251 9.76912 25.7283C10.1048 25.4314 10.5428 25.2769 10.9904 25.2973C11.2093 25.303 11.4247 25.3525 11.6241 25.443C11.8234 25.5335 12.0026 25.663 12.1509 25.824C12.2992 25.985 12.4137 26.1742 12.4875 26.3803C12.5614 26.5863 12.5931 26.8051 12.5808 27.0237Z" fill="#F0F0F0"/>
<path d="M8.22562 31.1473L7.85922 31.5729C7.83316 31.5985 7.80076 31.6167 7.76534 31.6257C7.72992 31.6347 7.69275 31.6341 7.65762 31.6241C7.55925 31.5939 7.45868 31.5714 7.35682 31.5569C7.3155 31.5392 7.27923 31.5115 7.2513 31.4763C7.22336 31.4411 7.20464 31.3995 7.19682 31.3553L7.08642 30.9521C7.05762 30.8481 6.98562 30.7729 6.92642 30.7921L6.30242 30.9057C6.24162 30.9169 6.19682 31.0065 6.20162 31.1073L6.22562 31.5537C6.23103 31.597 6.22568 31.6409 6.21005 31.6817C6.19442 31.7224 6.169 31.7587 6.13602 31.7873C6.03745 31.839 5.94374 31.8995 5.85602 31.9681C5.8239 31.9874 5.78711 31.9976 5.74962 31.9976C5.71213 31.9976 5.67535 31.9874 5.64322 31.9681L5.19842 31.7169C5.16707 31.6979 5.1298 31.6911 5.09378 31.6979C5.05776 31.7047 5.02551 31.7246 5.00322 31.7537L4.64002 32.2593C4.62199 32.2945 4.61659 32.3349 4.62475 32.3736C4.6329 32.4123 4.65411 32.4471 4.68482 32.4721L5.03682 32.7921C5.06932 32.8236 5.09305 32.863 5.10567 32.9065C5.1183 32.95 5.11938 32.996 5.10882 33.0401C5.08508 33.1227 5.06585 33.2065 5.05122 33.2913C5.04739 33.332 5.03374 33.3711 5.01145 33.4054C4.98916 33.4397 4.95888 33.4681 4.92322 33.4881L4.37602 33.6481C4.31682 33.6657 4.28162 33.7633 4.29922 33.8673L4.37762 34.3569C4.39362 34.4609 4.45922 34.5425 4.52162 34.5377L5.08482 34.4993C5.14722 34.4993 5.23202 34.5713 5.28162 34.6593C5.31362 34.7169 5.34722 34.7713 5.38242 34.8193C5.41081 34.856 5.42962 34.8992 5.43716 34.945C5.4447 34.9908 5.44074 35.0378 5.42562 35.0817L5.16642 35.5617C5.1491 35.5967 5.14524 35.637 5.15556 35.6747C5.16588 35.7124 5.18966 35.7451 5.22242 35.7665L5.67522 36.0945C5.70373 36.1176 5.73932 36.1302 5.77602 36.1302C5.81273 36.1302 5.84832 36.1176 5.87682 36.0945L6.24002 35.6801C6.26608 35.6544 6.29848 35.6362 6.3339 35.6272C6.36932 35.6182 6.40649 35.6188 6.44162 35.6289C6.54 35.659 6.64057 35.6815 6.74242 35.6961C6.78362 35.7135 6.81983 35.7409 6.84777 35.7758C6.87571 35.8107 6.8945 35.852 6.90242 35.8961L7.01282 36.3009C7.04162 36.4049 7.11362 36.4801 7.17282 36.4609L7.79682 36.3473C7.85762 36.3361 7.90242 36.2465 7.89762 36.1457L7.87362 35.6977C7.86854 35.6545 7.8742 35.6107 7.89011 35.5702C7.90602 35.5297 7.93169 35.4938 7.96482 35.4657C8.06234 35.4124 8.15544 35.3514 8.24322 35.2833C8.27546 35.2643 8.3122 35.2542 8.34962 35.2542C8.38704 35.2542 8.42378 35.2643 8.45602 35.2833L8.90082 35.5345C8.93218 35.5535 8.96944 35.5602 9.00546 35.5534C9.04148 35.5466 9.07373 35.5268 9.09602 35.4977L9.44802 34.9873C9.46576 34.952 9.47099 34.9117 9.46285 34.873C9.45471 34.8344 9.43369 34.7996 9.40322 34.7745L9.05122 34.4545C9.01859 34.423 8.99477 34.3836 8.98214 34.3401C8.9695 34.2966 8.9685 34.2505 8.97922 34.2065C9.00314 34.1244 9.02237 34.0411 9.03682 33.9569C9.04052 33.9161 9.05411 33.8769 9.07642 33.8426C9.09872 33.8083 9.12907 33.78 9.16482 33.7601L9.71362 33.6001C9.77122 33.5825 9.80642 33.4833 9.78882 33.3809L9.71042 32.8913C9.69442 32.7873 9.63042 32.7057 9.56642 32.7105L9.00482 32.7489C8.94082 32.7489 8.85602 32.6769 8.80642 32.5889C8.77602 32.5329 8.74242 32.4785 8.70562 32.4289C8.67763 32.3922 8.65905 32.3493 8.65152 32.3038C8.64398 32.2584 8.64773 32.2118 8.66242 32.1681L8.92322 31.6881C8.94039 31.6528 8.94401 31.6125 8.93339 31.5747C8.92277 31.5369 8.89865 31.5044 8.86562 31.4833L8.41282 31.1553C8.38642 31.1344 8.35412 31.1224 8.32052 31.121C8.28691 31.1196 8.2537 31.1288 8.22562 31.1473ZM7.74562 32.6225C8.00295 32.8147 8.17539 33.0995 8.22645 33.4167C8.27752 33.7338 8.2032 34.0584 8.01922 34.3217C7.93191 34.4524 7.81923 34.5642 7.68785 34.6505C7.55648 34.7368 7.4091 34.7958 7.25447 34.824C7.09985 34.8522 6.94113 34.849 6.78775 34.8147C6.63437 34.7803 6.48946 34.7155 6.36162 34.6241C6.10291 34.4327 5.92885 34.1482 5.87629 33.8307C5.82372 33.5132 5.89679 33.1878 6.08002 32.9233C6.16746 32.7918 6.28055 32.6793 6.41251 32.5926C6.54447 32.5059 6.69259 32.4467 6.84798 32.4186C7.00337 32.3905 7.16283 32.3941 7.3168 32.4291C7.47077 32.4641 7.61608 32.5299 7.74402 32.6225H7.74562Z" fill="#F0F0F0"/>
<path d="M61.3216 26.7206L61.3696 27.4982C61.3714 27.5527 61.3925 27.6048 61.4291 27.6453C61.4657 27.6857 61.5155 27.7118 61.5696 27.719L62.3248 27.7702C62.3872 27.7849 62.4449 27.8148 62.4929 27.8573C62.5409 27.8997 62.5777 27.9533 62.6 28.0134C62.6353 28.0959 62.6748 28.1766 62.7184 28.255C62.7538 28.3066 62.7765 28.3658 62.7846 28.4278C62.7926 28.4898 62.7858 28.5529 62.7648 28.6118L62.2992 29.2518C62.248 29.3222 62.2992 29.4582 62.4048 29.5542L62.9232 30.0134C63.032 30.1094 63.1744 30.143 63.2432 30.087L63.8464 29.5638C63.896 29.5388 63.9508 29.5257 64.0064 29.5257C64.062 29.5257 64.1168 29.5388 64.1664 29.5638C64.2764 29.6105 64.3892 29.6505 64.504 29.6838C64.5636 29.7041 64.617 29.7395 64.6588 29.7867C64.7006 29.8338 64.7294 29.891 64.7424 29.9526L64.8576 30.607C64.8637 30.6617 64.8885 30.7127 64.9279 30.7512C64.9672 30.7897 65.0187 30.8134 65.0736 30.8182L65.9376 30.783C65.9881 30.778 66.0352 30.7548 66.0699 30.7177C66.1046 30.6806 66.1247 30.6322 66.1264 30.5814L66.1616 29.871C66.1636 29.8191 66.1795 29.7687 66.2076 29.7251C66.2358 29.6815 66.2751 29.6462 66.3216 29.623C66.4675 29.5703 66.6088 29.5055 66.744 29.4294C66.8022 29.4115 66.8639 29.4083 66.9236 29.42C66.9834 29.4318 67.0393 29.4581 67.0864 29.4966L67.5936 29.8566C67.7088 29.9382 67.8496 29.9526 67.9136 29.8902L68.512 29.2406C68.5712 29.1766 68.536 29.0358 68.4352 28.9206L68.0416 28.4886C67.995 28.4447 67.9604 28.3896 67.9411 28.3285C67.9218 28.2675 67.9184 28.2025 67.9312 28.1398C67.9892 28.0092 68.0373 27.8744 68.0752 27.7366C68.0891 27.6878 68.1159 27.6436 68.1528 27.6087C68.1897 27.5738 68.2353 27.5494 68.2848 27.5382L69.0608 27.423C69.1111 27.4098 69.155 27.379 69.1844 27.3361C69.2138 27.2932 69.2267 27.2411 69.2208 27.1894L69.1712 26.4118C69.1691 26.3574 69.1479 26.3054 69.1113 26.2651C69.0747 26.2247 69.0251 26.1985 68.9712 26.191L68.2176 26.1414C68.1548 26.1266 68.0967 26.0965 68.0484 26.0538C68.0001 26.0111 67.9631 25.9571 67.9408 25.8966C67.9056 25.815 67.8656 25.7366 67.8224 25.655C67.787 25.6037 67.7643 25.5448 67.7562 25.483C67.7482 25.4212 67.7549 25.3584 67.776 25.2998L68.2416 24.6598C68.2928 24.5878 68.2416 24.4534 68.136 24.3558L67.6192 23.8982C67.5088 23.8006 67.368 23.767 67.2992 23.8246L66.696 24.3462C66.6465 24.3716 66.5916 24.3849 66.536 24.3849C66.4803 24.3849 66.4255 24.3716 66.376 24.3462C66.2659 24.2995 66.1532 24.2595 66.0384 24.2262C65.9787 24.2061 65.9253 24.1707 65.8834 24.1235C65.8416 24.0764 65.8129 24.0191 65.8 23.9574L65.6848 23.3046C65.6788 23.2497 65.654 23.1985 65.6147 23.1598C65.5753 23.121 65.5238 23.097 65.4688 23.0918L64.6048 23.127C64.5541 23.1321 64.5071 23.1556 64.4726 23.193C64.4381 23.2305 64.4185 23.2793 64.4176 23.3302L64.3824 24.0406C64.38 24.0922 64.3639 24.1422 64.3357 24.1855C64.3076 24.2287 64.2685 24.2638 64.2224 24.287C64.0768 24.3404 63.9355 24.4051 63.8 24.4806C63.7422 24.4984 63.6808 24.5017 63.6214 24.4903C63.562 24.4788 63.5063 24.453 63.4592 24.415L62.9504 24.0534C62.8352 23.9718 62.6944 23.9574 62.6304 24.0214L62.032 24.6694C61.9728 24.7334 62.008 24.8742 62.1088 24.9894L62.5024 25.4214C62.5491 25.4653 62.5839 25.5203 62.6035 25.5813C62.6231 25.6423 62.6269 25.7073 62.6144 25.7702C62.5552 25.9005 62.5065 26.0353 62.4688 26.1734C62.4546 26.2223 62.4278 26.2665 62.391 26.3017C62.3542 26.3368 62.3087 26.3615 62.2592 26.3734L61.4832 26.4886C61.4323 26.5005 61.3877 26.5307 61.3578 26.5736C61.328 26.6164 61.3151 26.6688 61.3216 26.7206ZM65.1616 25.2934C65.6091 25.2734 66.0469 25.4281 66.3825 25.7248C66.7181 26.0216 66.9252 26.4372 66.96 26.8838C66.9723 27.1025 66.9405 27.3214 66.8665 27.5276C66.7926 27.7338 66.678 27.923 66.5295 28.084C66.381 28.245 66.2017 28.3746 66.0021 28.465C65.8026 28.5554 65.587 28.6048 65.368 28.6102C64.9204 28.6306 64.4823 28.4761 64.1467 28.1792C63.811 27.8824 63.604 27.4666 63.5696 27.0198C63.5582 26.8013 63.5907 26.5827 63.6653 26.377C63.7398 26.1712 63.8548 25.9825 64.0035 25.822C64.1523 25.6615 64.3317 25.5325 64.5311 25.4425C64.7306 25.3525 64.946 25.3035 65.1648 25.2982L65.1616 25.2934Z" fill="#F0F0F0"/>
<path d="M69.6832 28.909L69.2304 29.229C69.1974 29.2502 69.1733 29.2827 69.1626 29.3205C69.152 29.3582 69.1556 29.3986 69.1728 29.4338L69.432 29.9138C69.4471 29.9574 69.4512 30.004 69.4439 30.0495C69.4366 30.0949 69.4183 30.1379 69.3904 30.1746C69.3536 30.229 69.32 30.2834 69.2896 30.3346C69.2384 30.4274 69.1536 30.5042 69.0912 30.4946L68.528 30.4562C68.4656 30.4562 68.4016 30.533 68.3856 30.637L68.3056 31.1266C68.2896 31.2306 68.3232 31.3282 68.3824 31.3458L68.9312 31.5058C68.9666 31.5262 68.9967 31.5546 69.0189 31.5888C69.0412 31.623 69.055 31.662 69.0592 31.7026C69.0723 31.7877 69.0916 31.8716 69.1168 31.9538C69.1271 31.9979 69.1258 32.0438 69.1132 32.0872C69.1006 32.1307 69.077 32.1701 69.0448 32.2018L68.6928 32.5218C68.6616 32.5464 68.64 32.5812 68.6318 32.6201C68.6236 32.659 68.6294 32.6995 68.648 32.7346L69 33.2434C69.0223 33.2725 69.0546 33.2924 69.0906 33.2992C69.1266 33.306 69.1639 33.2992 69.1952 33.2802L69.6384 33.029C69.6705 33.0097 69.7073 32.9995 69.7448 32.9995C69.7823 32.9995 69.8191 33.0097 69.8512 33.029C69.9396 33.0967 70.0332 33.1572 70.1312 33.2098C70.1641 33.2385 70.1896 33.2747 70.2055 33.3154C70.2214 33.3561 70.2272 33.4 70.2224 33.4434L70.1984 33.8898C70.1984 33.9906 70.2384 34.0802 70.2992 34.0914L70.9216 34.205C70.9824 34.2162 71.056 34.141 71.0816 34.037L71.192 33.6338C71.2042 33.5932 71.2258 33.5559 71.2549 33.5251C71.2841 33.4943 71.3201 33.4707 71.36 33.4562C71.4614 33.4419 71.5614 33.4194 71.6592 33.389C71.6943 33.3788 71.7315 33.3781 71.767 33.3871C71.8024 33.3961 71.8348 33.4145 71.8608 33.4402L72.2288 33.8658C72.2573 33.889 72.2929 33.9016 72.3296 33.9016C72.3663 33.9016 72.4019 33.889 72.4304 33.8658L72.8832 33.5378C72.916 33.5165 72.9398 33.4838 72.9501 33.4461C72.9604 33.4083 72.9565 33.3681 72.9392 33.333L72.68 32.853C72.665 32.8095 72.6609 32.7629 72.6681 32.7174C72.6754 32.6719 72.6938 32.6289 72.7216 32.5922C72.7584 32.5378 72.792 32.4834 72.8224 32.4322C72.8736 32.3394 72.9584 32.2626 73.0208 32.2722L73.584 32.3106C73.6464 32.3106 73.7104 32.2338 73.728 32.1298L73.8064 31.6402C73.8224 31.5378 73.7888 31.4386 73.7296 31.421L73.1808 31.261C73.1453 31.2411 73.1152 31.2127 73.0931 31.1784C73.0711 31.1441 73.0578 31.1049 73.0544 31.0642C73.0398 30.9795 73.0206 30.8957 72.9968 30.813C72.9859 30.7694 72.9866 30.7237 72.999 30.6804C73.0113 30.6371 73.0349 30.5979 73.0672 30.5666L73.4192 30.2466C73.4503 30.2223 73.472 30.1879 73.4804 30.1494C73.4889 30.1108 73.4837 30.0705 73.4656 30.0354L73.12 29.517C73.0977 29.4879 73.0655 29.4681 73.0295 29.4613C72.9934 29.4545 72.9562 29.4613 72.9248 29.4802L72.48 29.7314C72.4478 29.7504 72.411 29.7605 72.3736 29.7605C72.3362 29.7605 72.2995 29.7504 72.2672 29.7314C72.1789 29.6633 72.0853 29.6023 71.9872 29.549C71.9543 29.5207 71.9288 29.4848 71.9129 29.4443C71.897 29.4039 71.8912 29.3602 71.896 29.317L71.92 28.869C71.92 28.7682 71.88 28.6786 71.8192 28.6674L71.1968 28.5538C71.136 28.5426 71.064 28.6178 71.0368 28.7218L70.9264 29.1266C70.9173 29.1716 70.897 29.2135 70.8673 29.2484C70.8377 29.2834 70.7996 29.3103 70.7568 29.3266C70.6555 29.3412 70.5554 29.3637 70.4576 29.3938C70.4225 29.4039 70.3853 29.4045 70.3499 29.3955C70.3145 29.3865 70.2821 29.3683 70.256 29.3426L69.888 28.917C69.8602 28.8919 69.8245 28.8774 69.7871 28.8759C69.7496 28.8745 69.7129 28.8862 69.6832 28.909ZM72.0224 30.6914C72.207 30.9544 72.2818 31.279 72.231 31.5962C72.1802 31.9134 72.0078 32.1984 71.7504 32.3906C71.6227 32.4822 71.4778 32.5471 71.3245 32.5816C71.1712 32.616 71.0125 32.6193 70.8579 32.5913C70.7033 32.5632 70.5559 32.5044 70.4245 32.4182C70.293 32.3321 70.1802 32.2204 70.0928 32.0898C69.9083 31.8264 69.8337 31.5015 69.8848 31.184C69.9359 30.8665 70.1086 30.5813 70.3664 30.389C70.4941 30.2976 70.6389 30.2328 70.7922 30.1985C70.9454 30.1642 71.104 30.161 71.2585 30.1893C71.413 30.2175 71.5602 30.2765 71.6915 30.3627C71.8227 30.449 71.9353 30.5608 72.0224 30.6914Z" fill="#F0F0F0"/>
<path d="M16 53.0066L28.0192 59.9586L28.0624 59.9314L28.3984 59.7394L28.7184 59.5538C30.3184 58.6274 31.4496 57.9442 31.3632 57.4226C31.2992 57.0274 30.584 56.8034 29.9936 56.733C29.674 56.7074 29.3631 56.6164 29.08 56.4658C28.9736 56.4175 28.8824 56.3409 28.8164 56.2445C28.7504 56.148 28.7121 56.0353 28.7056 55.9186C28.7056 55.6754 28.8848 55.4194 29.232 55.2178C29.872 54.8498 30.832 54.8098 31.392 55.1314C31.6034 55.2468 31.7672 55.4333 31.8544 55.6578C31.9776 56.0002 32.3664 56.413 33.0512 56.4482C33.9968 56.4994 35.056 55.8882 36.8016 54.877L37.216 54.637L25.216 47.6914L16 53.0066ZM48.0368 60.8866C47.6592 61.101 47.2944 61.3042 46.936 61.5026C45.496 62.3026 44.4592 62.8754 44.536 63.3474C44.5621 63.4648 44.6304 63.5684 44.728 63.6386C44.9936 63.8546 45.48 63.9858 45.9056 64.0354C46.225 64.061 46.5358 64.1514 46.8192 64.301C46.9256 64.3504 47.0168 64.4276 47.083 64.5244C47.1491 64.6213 47.1879 64.7343 47.1952 64.8514C47.1894 64.9858 47.1406 65.1148 47.056 65.2194C46.9483 65.354 46.8151 65.466 46.664 65.549C46.024 65.9186 45.064 65.9554 44.5056 65.637C44.295 65.5211 44.1318 65.3347 44.0448 65.1106C43.92 64.7682 43.5328 64.3554 42.8464 64.3186C42.0464 64.2738 41.2224 64.773 39.9664 65.533C39.632 65.7362 39.2528 65.965 38.8464 66.2098L39.4688 66.5666L53.9136 74.8994C57.6159 74.0806 61.2091 72.8294 64.6192 71.1714C64.8453 71.0647 65.0693 70.9511 65.2912 70.8306L48.0368 60.8866Z" fill="#9E9E9E"/>
<path opacity="0.2" d="M16 53.0066L28.0192 59.9586L28.0624 59.9314L28.3984 59.7394L28.7184 59.5538C30.3184 58.6274 31.4496 57.9442 31.3632 57.4226C31.2992 57.0274 30.584 56.8034 29.9936 56.733C29.674 56.7074 29.3631 56.6164 29.08 56.4658C28.9736 56.4175 28.8824 56.3409 28.8164 56.2445C28.7504 56.148 28.7121 56.0353 28.7056 55.9186C28.7056 55.6754 28.8848 55.4194 29.232 55.2178C29.872 54.8498 30.832 54.8098 31.392 55.1314C31.6034 55.2468 31.7672 55.4333 31.8544 55.6578C31.9776 56.0002 32.3664 56.413 33.0512 56.4482C33.9968 56.4994 35.056 55.8882 36.8016 54.877L37.216 54.637L25.216 47.6914L16 53.0066ZM48.0368 60.8866C47.6592 61.101 47.2944 61.3042 46.936 61.5026C45.496 62.3026 44.4592 62.8754 44.536 63.3474C44.5621 63.4648 44.6304 63.5684 44.728 63.6386C44.9936 63.8546 45.48 63.9858 45.9056 64.0354C46.225 64.061 46.5358 64.1514 46.8192 64.301C46.9256 64.3504 47.0168 64.4276 47.083 64.5244C47.1491 64.6213 47.1879 64.7343 47.1952 64.8514C47.1894 64.9858 47.1406 65.1148 47.056 65.2194C46.9483 65.354 46.8151 65.466 46.664 65.549C46.024 65.9186 45.064 65.9554 44.5056 65.637C44.295 65.5211 44.1318 65.3347 44.0448 65.1106C43.92 64.7682 43.5328 64.3554 42.8464 64.3186C42.0464 64.2738 41.2224 64.773 39.9664 65.533C39.632 65.7362 39.2528 65.965 38.8464 66.2098L39.4688 66.5666L53.9136 74.8994C57.6159 74.0806 61.2091 72.8294 64.6192 71.1714C64.8453 71.0647 65.0693 70.9511 65.2912 70.8306L48.0368 60.8866Z" fill="white"/>
<path d="M28.3696 32.11L20.6032 24.1836L12.8368 41.078L16 39.2524V53.0076L25.2064 47.6908V33.9356L28.3696 32.11Z" fill="#9E9E9E"/>
<path d="M24.9904 7.58571L25.3856 6.76171L23.6576 5.76011C23.4533 5.64144 23.2344 5.54999 23.0064 5.48811C22.9264 5.46731 22.8464 5.44971 22.7648 5.43531C22.361 5.36866 21.9482 5.38006 21.5488 5.46891C21.4005 5.4998 21.2541 5.53933 21.1104 5.58731C20.9566 5.63703 20.8054 5.6947 20.6576 5.76011C20.4579 5.84872 20.2635 5.94862 20.0752 6.05931C19.866 6.18104 19.6636 6.31404 19.4688 6.45771C19.3184 6.56651 19.1712 6.68331 19.024 6.80651C16.88 8.62091 15.2 11.8481 14.7648 14.9521C14.7344 15.1633 14.712 15.3729 14.6944 15.5825C14.6688 15.8833 14.6576 16.1809 14.6576 16.4737C14.6576 16.7153 14.6688 16.9537 14.6864 17.1729C14.7024 17.3681 14.7248 17.5569 14.752 17.7393C14.7792 17.9217 14.8144 18.0945 14.8544 18.2641C14.9606 18.7291 15.1307 19.1771 15.36 19.5953C15.4064 19.6785 15.4544 19.7553 15.5056 19.8353C15.71 20.1538 15.9689 20.4338 16.2704 20.6625C16.3609 20.7288 16.4549 20.7902 16.552 20.8465L18.1856 21.7889L18.5472 21.0353C18.6432 21.0145 18.7392 20.9889 18.8368 20.9601C19.2345 20.8374 19.6163 20.6683 19.9744 20.4561C20.2046 20.3205 20.4273 20.1726 20.6416 20.0129C20.9292 19.7974 21.2028 19.5639 21.4608 19.3137C23.2512 17.5905 24.6608 14.8961 25.1776 12.2129C25.2541 11.8192 25.3107 11.4219 25.3472 11.0225C25.376 10.6929 25.392 10.3665 25.3904 10.0449C25.3905 9.58018 25.3525 9.11623 25.2768 8.65771C25.214 8.29245 25.1181 7.93364 24.9904 7.58571Z" fill="#9E9E9E"/>
<path opacity="0.25" d="M15.1583 13.1205L18.6639 15.1445L19.1247 13.8101L15.6159 11.7812C15.4415 12.2197 15.2879 12.6661 15.1583 13.1205Z" fill="white"/>
<path opacity="0.25" d="M23.6576 5.76011C23.4533 5.64144 23.2344 5.54999 23.0064 5.48811C22.9264 5.46731 22.8464 5.44971 22.7648 5.43531C22.361 5.36866 21.9483 5.38006 21.5488 5.46891L21.3888 5.50731L24.9952 7.58731C24.9952 7.58731 24.9952 7.58731 24.9952 7.57931L25.3904 6.75531L23.6576 5.76011Z" fill="white"/>
<path opacity="0.25" d="M23.2832 10.8803L23.744 10.3251L18.488 7.30273C18.3216 7.46807 18.1584 7.64193 17.9984 7.82433L23.2832 10.8803Z" fill="white"/>
<path opacity="0.25" d="M16.8816 9.31124L21.44 11.94L21.9408 10.6296L17.7008 8.18164C17.4076 8.54319 17.1342 8.92027 16.8816 9.31124Z" fill="white"/>
<path opacity="0.4" d="M23.6576 5.76011C23.4533 5.64144 23.2344 5.54999 23.0064 5.48811C22.9264 5.46731 22.8464 5.44971 22.7648 5.43531C22.3611 5.36866 21.9483 5.38006 21.5488 5.46891C21.4005 5.4998 21.2541 5.53933 21.1104 5.58731C20.9566 5.63703 20.8055 5.6947 20.6576 5.76011C20.458 5.84872 20.2635 5.94862 20.0752 6.05931C19.866 6.18104 19.6636 6.31404 19.4688 6.45771C19.3184 6.56651 19.1712 6.68331 19.024 6.80651C17.0272 8.49291 15.4272 11.4081 14.864 14.3073L22.176 18.5297C23.6822 16.7035 24.7099 14.5309 25.1664 12.2081C25.243 11.8144 25.2996 11.4171 25.336 11.0177C25.3648 10.6881 25.3808 10.3617 25.3792 10.0401C25.3793 9.57538 25.3414 9.11143 25.2656 8.65291C25.2043 8.2878 25.1101 7.929 24.984 7.58091L25.3792 6.75691L23.6576 5.76011Z" fill="white"/>
<path opacity="0.1" d="M18.1808 21.7893L18.5424 21.0357C18.6384 21.0149 18.7344 20.9893 18.832 20.9605C19.2297 20.8378 19.6115 20.6687 19.9696 20.4565C20.1998 20.3209 20.4225 20.1729 20.6368 20.0133C20.9244 19.7978 21.198 19.5643 21.456 19.3141C21.7115 19.0671 21.9539 18.807 22.1824 18.5349L14.8704 14.3125C14.8288 14.5253 14.7936 14.7397 14.7648 14.9525C14.736 15.1653 14.712 15.3733 14.6944 15.5829C14.6688 15.8837 14.6576 16.1813 14.6576 16.4741C14.6576 16.7157 14.6688 16.9541 14.6864 17.1733C14.7024 17.3685 14.7248 17.5573 14.752 17.7397C14.7792 17.9221 14.8144 18.0949 14.8544 18.2645C14.9606 18.7295 15.1307 19.1775 15.36 19.5957C15.4064 19.6789 15.4544 19.7557 15.5056 19.8357C15.71 20.1542 15.9689 20.4342 16.2704 20.6629C16.3609 20.7292 16.4549 20.7906 16.552 20.8469L18.1808 21.7893Z" fill="black"/>
<path opacity="0.1" d="M15.36 19.5953C15.4064 19.6785 15.4544 19.7553 15.5056 19.8353C15.71 20.1538 15.9689 20.4338 16.2704 20.6625C16.3609 20.7288 16.4549 20.7902 16.552 20.8465L18.1856 21.7889L18.5472 21.0353H18.5616L18.5872 20.7265L14.9552 18.6289C15.0552 18.9646 15.1909 19.2886 15.36 19.5953Z" fill="black"/>
<path d="M27.1183 9.72369C27.0437 9.24962 26.9099 8.7868 26.7199 8.34609C26.4894 7.79736 26.1246 7.31539 25.6591 6.94449C25.3737 6.7249 25.0473 6.56444 24.6991 6.47249C24.6191 6.45169 24.5391 6.43409 24.4559 6.41969C24.0522 6.35303 23.6394 6.36444 23.2399 6.45329C23.0917 6.48458 22.9453 6.52411 22.8015 6.57169C22.6478 6.62167 22.4967 6.67934 22.3487 6.74449C22.1508 6.83217 21.9579 6.93099 21.7711 7.04049C21.5611 7.16164 21.3581 7.29465 21.1631 7.43889C21.0143 7.54769 20.8655 7.66449 20.7199 7.78769C18.5759 9.59729 16.8799 12.8245 16.4591 15.9285C16.4303 16.1397 16.4063 16.3493 16.3903 16.5589C16.3647 16.8581 16.3519 17.1573 16.3535 17.4501C16.3535 17.6917 16.3631 17.9301 16.3823 18.1493C16.3983 18.3445 16.4191 18.5333 16.4479 18.7157C16.4767 18.8981 16.5103 19.0709 16.5503 19.2405C16.6535 19.7057 16.8221 20.1538 17.0511 20.5717C17.0981 20.6549 17.1461 20.7349 17.1951 20.8117C17.4001 21.1302 17.6595 21.4102 17.9615 21.6389C18.3992 21.9669 18.9255 22.1554 19.4719 22.1797C19.8809 22.1982 20.2899 22.144 20.6799 22.0197C21.0778 21.8974 21.4597 21.7282 21.8175 21.5157C22.0481 21.3807 22.2709 21.2327 22.4847 21.0725C22.7723 20.857 23.046 20.6235 23.3039 20.3733C25.0943 18.6517 26.5039 15.9557 27.0207 13.2725C27.0968 12.8788 27.1528 12.4815 27.1887 12.0821C27.2191 11.7621 27.2335 11.4261 27.2335 11.1045C27.2335 10.6418 27.195 10.18 27.1183 9.72369Z" fill="#9E9E9E"/>
<path opacity="0.05" d="M16.5663 15.2871C16.5247 15.5015 16.4895 15.7175 16.4591 15.9271C16.4287 16.1367 16.4063 16.3479 16.3903 16.5575C16.3647 16.8567 16.3519 17.1559 16.3535 17.4487C16.3535 17.6903 16.3631 17.9287 16.3823 18.1479C16.3983 18.3431 16.4191 18.5319 16.4479 18.7143C16.4767 18.8967 16.5103 19.0695 16.5503 19.2391C16.6535 19.7043 16.8221 20.1525 17.0511 20.5703C17.0981 20.6535 17.1461 20.7335 17.1951 20.8103C17.4001 21.1288 17.6595 21.4088 17.9615 21.6375C18.3992 21.9655 18.9255 22.154 19.4719 22.1783C19.8809 22.1968 20.2899 22.1426 20.6799 22.0183C21.0778 21.896 21.4597 21.7268 21.8175 21.5143C22.0175 21.3975 22.2159 21.2647 22.4111 21.1239L16.5663 15.2871Z" fill="black"/>
<path opacity="0.05" d="M16.6512 19.6191C16.7498 19.9525 16.8839 20.2744 17.0512 20.5791C17.0982 20.6623 17.1462 20.7423 17.1952 20.8191C17.4002 21.1377 17.6597 21.4177 17.9616 21.6463C18.3206 21.915 18.7406 22.0903 19.184 22.1567L16.6512 19.6191Z" fill="black"/>
<path opacity="0.1" d="M17.3104 12.7617C17.136 13.2001 16.9904 13.6465 16.8528 14.0961L23.2176 20.4609L23.304 20.3793C23.5796 20.1129 23.8403 19.8314 24.0848 19.5361L17.3104 12.7617Z" fill="white"/>
<path opacity="0.1" d="M19.3904 9.16016C19.0989 9.52145 18.8276 9.89856 18.5776 10.2898L25.5824 17.2962C25.8096 16.869 26.0176 16.4258 26.2048 15.9746L19.3904 9.16016Z" fill="white"/>
<path opacity="0.1" d="M20.1856 8.2793C20.0256 8.4393 19.8528 8.6217 19.6912 8.8041L26.3888 15.5017C26.4826 15.2521 26.5701 14.9993 26.6512 14.7433L20.1856 8.2793Z" fill="white"/>
<path opacity="0.1" d="M27.2176 10.6261C27.2176 10.4965 27.2 10.3701 27.1872 10.2453C27.1872 10.2053 27.1872 10.1637 27.1744 10.1221L27.16 9.99569C27.1472 9.90449 27.1344 9.81329 27.1184 9.72369C27.0437 9.24962 26.9099 8.7868 26.72 8.34609C26.4894 7.79736 26.1246 7.31539 25.6592 6.94449C25.3737 6.7249 25.0473 6.56444 24.6992 6.47249C24.6192 6.45169 24.5392 6.43409 24.456 6.41969C24.0522 6.35303 23.6394 6.36444 23.24 6.45329L23.08 6.49169L27.2176 10.6261Z" fill="white"/>
<path d="M25.8463 11.942C25.8463 14.8044 24.1775 18.1116 22.0655 19.5164C21.9759 19.5772 21.8847 19.6332 21.7935 19.686C19.5535 20.9788 17.7391 19.6076 17.7391 16.622C17.7391 13.6364 19.5535 10.1692 21.7935 8.87644C21.8847 8.82524 21.9759 8.77564 22.0655 8.73244C24.1775 7.69884 25.8463 9.07804 25.8463 11.942Z" fill="#9E9E9E"/>
<path opacity="0.4" d="M25.8463 11.942C25.8463 14.8044 24.1775 18.1116 22.0655 19.5164C21.9759 19.5772 21.8847 19.6332 21.7935 19.686C19.5535 20.9788 17.7391 19.6076 17.7391 16.622C17.7391 13.6364 19.5535 10.1692 21.7935 8.87644C21.8847 8.82524 21.9759 8.77564 22.0655 8.73244C24.1775 7.69884 25.8463 9.07804 25.8463 11.942Z" fill="black"/>
<path d="M25.6672 12.0469C25.6672 12.1397 25.6672 12.2325 25.6672 12.3253C25.5648 14.9941 24.0096 17.9861 22.0592 19.2853L22.0064 19.3205C21.9376 19.3637 21.8688 19.4069 21.8 19.4469C21.4268 19.6722 21.0132 19.8227 20.5824 19.8901C19.6736 20.0133 18.9136 19.6149 18.4432 18.8005C18.1362 18.2337 17.9622 17.6045 17.9344 16.9605C17.9248 16.8197 17.92 16.6757 17.92 16.5253C17.92 16.3749 17.92 16.2517 17.9328 16.1125C17.9497 15.8176 17.9823 15.5239 18.0304 15.2325C18.3728 13.1701 19.4704 11.0725 20.872 9.80527C21.0656 9.62828 21.2715 9.46521 21.488 9.31727C21.5888 9.24847 21.6912 9.18447 21.7936 9.12527C21.896 9.06607 21.968 9.02927 22.0528 8.98607L22.1248 8.95247C22.6179 8.70081 23.178 8.61176 23.7248 8.69807C24.5408 8.85807 25.1648 9.49807 25.4704 10.5429C25.6058 11.0326 25.672 11.5388 25.6672 12.0469Z" fill="#9E9E9E"/>
<path opacity="0.5" d="M25.6672 12.0469C25.6672 12.1397 25.6672 12.2325 25.6672 12.3253C25.5648 14.9941 24.0096 17.9861 22.0592 19.2853L22.0064 19.3205C21.9376 19.3637 21.8688 19.4069 21.8 19.4469C21.4268 19.6722 21.0132 19.8227 20.5824 19.8901C19.6736 20.0133 18.9136 19.6149 18.4432 18.8005C18.1362 18.2337 17.9622 17.6045 17.9344 16.9605C17.9248 16.8197 17.92 16.6757 17.92 16.5253C17.92 16.3749 17.92 16.2517 17.9328 16.1125C17.9497 15.8176 17.9823 15.5239 18.0304 15.2325C18.3728 13.1701 19.4704 11.0725 20.872 9.80527C21.0656 9.62828 21.2715 9.46521 21.488 9.31727C21.5888 9.24847 21.6912 9.18447 21.7936 9.12527C21.896 9.06607 21.968 9.02927 22.0528 8.98607L22.1248 8.95247C22.6179 8.70081 23.178 8.61176 23.7248 8.69807C24.5408 8.85807 25.1648 9.49807 25.4704 10.5429C25.6058 11.0326 25.672 11.5388 25.6672 12.0469Z" fill="black"/>
<path d="M25.0176 11.9511C25.0176 11.8567 25.0176 11.7639 25.0176 11.6711C25.0234 11.1609 24.9576 10.6525 24.8224 10.1607C24.6887 9.62504 24.4031 9.13944 24 8.76226C23.9123 8.73152 23.8225 8.70745 23.7312 8.69026C23.1844 8.60395 22.6243 8.693 22.1312 8.94466L22.0592 8.97826C21.9744 9.02146 21.8864 9.06626 21.8 9.11746C21.7136 9.16866 21.5952 9.24066 21.4944 9.30946C21.2778 9.45739 21.072 9.62047 20.8784 9.79746C19.4784 11.0599 18.3792 13.1575 18.0368 15.2247C17.9887 15.516 17.9561 15.8098 17.9392 16.1047C17.9296 16.2439 17.9264 16.3815 17.9264 16.5175C17.9264 16.6535 17.9264 16.8119 17.9408 16.9527C17.9656 17.5983 18.1374 18.2298 18.4432 18.7991C18.5766 19.035 18.7486 19.247 18.952 19.4263C19.2695 19.533 19.6078 19.5632 19.9392 19.5143C20.3699 19.4474 20.7834 19.2974 21.1568 19.0727C21.2256 19.0327 21.296 18.9895 21.3632 18.9447L21.416 18.9095C23.36 17.6119 24.9152 14.6199 25.0176 11.9511Z" fill="#9E9E9E"/>
<path opacity="0.25" d="M25.0176 11.9511C25.0176 11.8567 25.0176 11.7639 25.0176 11.6711C25.0234 11.1609 24.9576 10.6525 24.8224 10.1607C24.6887 9.62504 24.4031 9.13944 24 8.76226C23.9123 8.73152 23.8225 8.70745 23.7312 8.69026C23.1844 8.60395 22.6243 8.693 22.1312 8.94466L22.0592 8.97826C21.9744 9.02146 21.8864 9.06626 21.8 9.11746C21.7136 9.16866 21.5952 9.24066 21.4944 9.30946C21.2778 9.45739 21.072 9.62047 20.8784 9.79746C19.4784 11.0599 18.3792 13.1575 18.0368 15.2247C17.9887 15.516 17.9561 15.8098 17.9392 16.1047C17.9296 16.2439 17.9264 16.3815 17.9264 16.5175C17.9264 16.6535 17.9264 16.8119 17.9408 16.9527C17.9656 17.5983 18.1374 18.2298 18.4432 18.7991C18.5766 19.035 18.7486 19.247 18.952 19.4263C19.2695 19.533 19.6078 19.5632 19.9392 19.5143C20.3699 19.4474 20.7834 19.2974 21.1568 19.0727C21.2256 19.0327 21.296 18.9895 21.3632 18.9447L21.416 18.9095C23.36 17.6119 24.9152 14.6199 25.0176 11.9511Z" fill="black"/>
<path d="M24.4592 6.41948C22.1184 6.15548 20.2144 8.09468 18.944 9.83708C17.1088 12.5427 15.9456 15.9683 16.5808 19.2435C16.7888 20.1539 17.2048 21.0691 17.9632 21.6435C17.1888 21.0755 16.7392 20.1619 16.5232 19.2435C15.9376 16.5619 16.6736 13.7443 17.9008 11.3459C19.2112 8.97788 21.44 6.09628 24.4592 6.41948Z" fill="#F5F5F5"/>
<path opacity="0.35" d="M22.688 12.766L21.9104 12.3164L23.4144 11.0332L24.192 11.4828L22.688 12.766Z" fill="black"/>
<path opacity="0.35" d="M23.1665 13.0602C22.7681 12.7786 22.0785 12.9914 21.4929 13.1754C21.3521 13.2234 21.2257 13.265 21.1105 13.3002C21.074 13.3864 21.0544 13.4787 21.0529 13.5722C21.0529 14.025 21.4369 13.8922 22.2721 13.6266C22.5536 13.53 22.8418 13.4541 23.1345 13.3994C23.1601 13.6298 23.3201 13.8394 23.9441 13.5098L23.1665 13.0602Z" fill="black"/>
<path opacity="0.45" d="M21.24 18.9578L20.4624 18.5082V17.5898L21.24 18.0394V18.9578Z" fill="black"/>
<path opacity="0.35" d="M22.5599 15.4715C22.5599 15.8363 22.2863 16.1627 21.8799 16.3995C21.2399 16.7755 20.9791 16.4683 20.9199 16.1691L20.7823 16.0891C20.8943 16.056 21.0018 16.0092 21.1023 15.9499C21.3839 15.8058 21.6071 15.569 21.7343 15.2795C22.2111 15.1227 22.5599 15.0619 22.5599 15.4715Z" fill="black"/>
<path opacity="0.35" d="M19.6655 17.7245C19.5799 17.6744 19.4814 17.6505 19.3823 17.6557C19.3656 17.6081 19.3517 17.5595 19.3407 17.5101L18.5599 17.0605C18.5809 17.1959 18.6306 17.3251 18.7057 17.4396C18.7807 17.5542 18.8794 17.6513 18.9951 17.7245L19.7711 18.1741C19.8078 18.0985 19.8173 18.0125 19.7981 17.9306C19.7789 17.8487 19.7321 17.776 19.6655 17.7245Z" fill="black"/>
<path d="M22.2719 13.6273C21.4367 13.9009 21.0527 14.0257 21.0527 13.5729C21.0543 13.4793 21.0739 13.387 21.1103 13.3009C20.5407 13.4769 20.2751 13.4993 20.2751 13.1233C20.2751 12.8465 20.4623 12.5057 20.9775 12.2065C21.5263 11.8865 21.8335 11.9617 21.9103 12.3153L23.4143 11.0353C23.4143 11.0161 23.4015 10.9985 23.3935 10.9793C23.4873 10.9588 23.5773 10.9243 23.6607 10.8769L23.0399 10.5057L22.9807 10.4705H22.9711C22.788 10.3813 22.5828 10.3474 22.3807 10.3729C22.1112 10.4021 21.8478 10.4728 21.5999 10.5825V10.5601L22.3775 10.1073L21.5999 9.66406L21.0735 9.97126L20.3599 10.3857V11.3025C19.3055 12.0705 18.6479 13.0721 18.6479 14.1569C18.6479 14.6497 18.7807 14.9297 18.9967 15.0721H19.0063C19.0248 15.0839 19.0441 15.0946 19.0639 15.1041L19.7151 15.4705C19.7331 15.3736 19.7208 15.2737 19.6799 15.1841C19.8866 15.1578 20.0906 15.1133 20.2895 15.0513C21.0799 14.8129 21.7823 14.4369 21.7823 15.0225C21.7827 15.1106 21.7664 15.198 21.7343 15.2801C22.2143 15.1201 22.5599 15.0625 22.5599 15.4721C22.5599 15.8369 22.2863 16.1633 21.8799 16.4001C21.2399 16.7761 20.9791 16.4689 20.9199 16.1697L20.7823 16.0897L20.1423 15.7201L18.5599 17.0593L19.3375 17.5089C19.3622 17.6235 19.402 17.7343 19.4559 17.8385C19.8039 17.8262 20.1455 17.7417 20.4591 17.5905V17.9617L21.6879 17.7937V16.8769C22.7535 16.0913 23.4879 15.0337 23.4879 13.9281C23.4943 13.7396 23.4644 13.5517 23.3999 13.3745C23.0144 13.4085 22.6351 13.4935 22.2719 13.6273Z" fill="#9E9E9E"/>
<path opacity="0.15" d="M22.2719 13.6273C21.4367 13.9009 21.0527 14.0257 21.0527 13.5729C21.0543 13.4793 21.0739 13.387 21.1103 13.3009C20.5407 13.4769 20.2751 13.4993 20.2751 13.1233C20.2751 12.8465 20.4623 12.5057 20.9775 12.2065C21.5263 11.8865 21.8335 11.9617 21.9103 12.3153L23.4143 11.0353C23.4143 11.0161 23.4015 10.9985 23.3935 10.9793C23.4873 10.9588 23.5773 10.9243 23.6607 10.8769L23.0399 10.5057L22.9807 10.4705H22.9711C22.788 10.3813 22.5828 10.3474 22.3807 10.3729C22.1112 10.4021 21.8478 10.4728 21.5999 10.5825V10.5601L22.3775 10.1073L21.5999 9.66406L21.0735 9.97126L20.3599 10.3857V11.3025C19.3055 12.0705 18.6479 13.0721 18.6479 14.1569C18.6479 14.6497 18.7807 14.9297 18.9967 15.0721H19.0063C19.0248 15.0839 19.0441 15.0946 19.0639 15.1041L19.7151 15.4705C19.7331 15.3736 19.7208 15.2737 19.6799 15.1841C19.8866 15.1578 20.0906 15.1133 20.2895 15.0513C21.0799 14.8129 21.7823 14.4369 21.7823 15.0225C21.7827 15.1106 21.7664 15.198 21.7343 15.2801C22.2143 15.1201 22.5599 15.0625 22.5599 15.4721C22.5599 15.8369 22.2863 16.1633 21.8799 16.4001C21.2399 16.7761 20.9791 16.4689 20.9199 16.1697L20.7823 16.0897L20.1423 15.7201L18.5599 17.0593L19.3375 17.5089C19.3622 17.6235 19.402 17.7343 19.4559 17.8385C19.8039 17.8262 20.1455 17.7417 20.4591 17.5905V17.9617L21.6879 17.7937V16.8769C22.7535 16.0913 23.4879 15.0337 23.4879 13.9281C23.4943 13.7396 23.4644 13.5517 23.3999 13.3745C23.0144 13.4085 22.6351 13.4935 22.2719 13.6273Z" fill="black"/>
<g opacity="0.2">
<path d="M20.3632 11.3027C19.771 11.7528 19.2903 12.3331 18.9584 12.9987C18.8027 13.3327 18.7121 13.6933 18.6912 14.0611C18.6735 14.244 18.6832 14.4284 18.72 14.6083C18.7512 14.7917 18.8492 14.957 18.9952 15.0723C18.8353 14.9678 18.7209 14.8066 18.6752 14.6211C18.6272 14.4374 18.6067 14.2476 18.6144 14.0579C18.6287 13.678 18.719 13.3048 18.88 12.9603C19.0449 12.6188 19.2607 12.3043 19.52 12.0275C19.7709 11.7529 20.054 11.5096 20.3632 11.3027Z" fill="black"/>
</g>
<path d="M23.4032 13.3741C23.0165 13.4078 22.6361 13.4928 22.272 13.6269C21.4368 13.9005 21.0528 14.0253 21.0528 13.5725C21.0543 13.479 21.0739 13.3866 21.1104 13.3005C21.2502 13.0245 21.4744 12.8003 21.7504 12.6605C22.2992 12.3405 22.6064 12.4173 22.6832 12.7709L24.1872 11.4909C24.1393 11.2968 24.027 11.1248 23.8685 11.003C23.7101 10.8812 23.515 10.8168 23.3152 10.8205C22.9903 10.8281 22.6706 10.9027 22.376 11.0397V10.1133L21.6 10.5597L21.1376 10.8285V11.7453C20.0832 12.5133 19.4256 13.5165 19.4256 14.5981C19.4187 14.8028 19.4508 15.0069 19.52 15.1997C19.7536 15.7805 20.3904 15.7005 21.0624 15.5037C21.2976 15.4333 21.5264 15.3437 21.7296 15.2829C22.2096 15.1229 22.5552 15.0653 22.5552 15.4749C22.5552 15.8397 22.2816 16.1661 21.8752 16.4029C21.2352 16.7789 20.9744 16.4717 20.9152 16.1725L19.3344 17.5117C19.359 17.6263 19.3989 17.7371 19.4528 17.8413C19.6592 18.2269 20.0272 18.3341 20.456 18.2765C20.7249 18.2356 20.9866 18.157 21.2336 18.0429V18.9613L22.4624 18.2509V17.3277C23.528 16.5437 24.2624 15.4861 24.2624 14.3805C24.2688 13.5821 23.8912 13.3629 23.4032 13.3741Z" fill="#9E9E9E"/>
<g opacity="0.1">
<path d="M23.4032 13.3741C23.0165 13.4078 22.6361 13.4928 22.272 13.6269C21.4368 13.9005 21.0528 14.0253 21.0528 13.5725C21.0543 13.479 21.0739 13.3866 21.1104 13.3005C21.2502 13.0245 21.4744 12.8003 21.7504 12.6605C22.2992 12.3405 22.6064 12.4173 22.6832 12.7709L24.1872 11.4909C24.1393 11.2968 24.027 11.1248 23.8685 11.003C23.7101 10.8812 23.515 10.8168 23.3152 10.8205C22.9903 10.8281 22.6706 10.9027 22.376 11.0397V10.1133L21.6 10.5597L21.1376 10.8285V11.7453C20.0832 12.5133 19.4256 13.5165 19.4256 14.5981C19.4187 14.8028 19.4508 15.0069 19.52 15.1997C19.7536 15.7805 20.3904 15.7005 21.0624 15.5037C21.2976 15.4333 21.5264 15.3437 21.7296 15.2829C22.2096 15.1229 22.5552 15.0653 22.5552 15.4749C22.5552 15.8397 22.2816 16.1661 21.8752 16.4029C21.2352 16.7789 20.9744 16.4717 20.9152 16.1725L19.3344 17.5117C19.359 17.6263 19.3989 17.7371 19.4528 17.8413C19.6592 18.2269 20.0272 18.3341 20.456 18.2765C20.7249 18.2356 20.9866 18.157 21.2336 18.0429V18.9613L22.4624 18.2509V17.3277C23.528 16.5437 24.2624 15.4861 24.2624 14.3805C24.2688 13.5821 23.8912 13.3629 23.4032 13.3741Z" fill="white"/>
</g>
<path opacity="0.1" d="M20.8112 16.2637L19.84 17.0845L20.9184 18.1645C21.024 18.1293 21.1312 18.0893 21.2384 18.0413V18.4845L21.5392 18.7853L22.4672 18.2493V17.9293L20.8112 16.2637Z" fill="white"/>
<path opacity="0.1" d="M23.4032 13.3736C23.0166 13.4073 22.6362 13.4924 22.272 13.6264L22.0016 13.7144L23.9456 15.6568C24.1511 15.2611 24.2608 14.8226 24.2656 14.3768C24.2668 14.2511 24.255 14.1257 24.2304 14.0024L23.6144 13.3864C23.5445 13.3757 23.4738 13.3714 23.4032 13.3736Z" fill="white"/>
<path opacity="0.1" d="M21.3008 13.0126C21.4343 12.87 21.5892 12.7491 21.76 12.6542C22.3088 12.3342 22.616 12.411 22.6928 12.7646L22.8528 12.6238L21.1408 10.9102V11.7518C20.9299 11.9057 20.7299 12.0741 20.5424 12.2558L21.3008 13.0126Z" fill="white"/>
<path opacity="0.1" d="M22.7936 10.8882C22.6534 10.9276 22.5155 10.9752 22.3808 11.0306V10.4754L22.152 10.2402L21.6 10.5602L21.5056 10.6146L23.208 12.3202L23.7584 11.8514L22.7936 10.8882Z" fill="white"/>
<path opacity="0.1" d="M20.192 15.6428L19.448 14.9004C19.4602 15.0026 19.4843 15.103 19.52 15.1996C19.5717 15.3344 19.6643 15.4496 19.7848 15.5291C19.9053 15.6086 20.0477 15.6484 20.192 15.6428Z" fill="white"/>
<path d="M21.1408 11.7512L20.3632 11.3016V10.3848L21.1408 10.8344V11.7512Z" fill="#9E9E9E"/>
<path opacity="0.35" d="M21.1408 11.7512L20.3632 11.3016V10.3848L21.1408 10.8344V11.7512Z" fill="black"/>
<path d="M22.4688 17.3247C22.4688 17.3247 22.5136 17.2911 22.5888 17.2287C22.636 17.1938 22.6814 17.1564 22.7248 17.1167C22.776 17.0719 22.8368 17.0239 22.8976 16.9663C22.9584 16.9087 23.0256 16.8479 23.0928 16.7791L23.1952 16.6735C23.2304 16.6367 23.264 16.5983 23.2992 16.5599C23.3344 16.5215 23.3696 16.4815 23.4032 16.4399C23.4368 16.3983 23.4736 16.3567 23.5072 16.3135C23.5728 16.2255 23.6416 16.1375 23.7008 16.0431C23.76 15.9487 23.8192 15.8543 23.8752 15.7599C23.9272 15.6659 23.9742 15.5693 24.016 15.4703C24.0608 15.3759 24.0912 15.2799 24.1264 15.1903C24.1392 15.1444 24.152 15.0996 24.1648 15.0559L24.184 14.9919C24.184 14.9711 24.1936 14.9503 24.1968 14.9295C24.2144 14.8479 24.232 14.7695 24.24 14.7055C24.248 14.6415 24.2592 14.5791 24.2608 14.5311C24.2608 14.4335 24.2688 14.3711 24.2688 14.3711C24.2688 14.3711 24.2688 14.4271 24.2688 14.5311C24.2672 14.59 24.2624 14.6487 24.2544 14.7071C24.247 14.7834 24.2353 14.8593 24.2192 14.9343C24.2192 14.9551 24.2192 14.9759 24.2064 14.9967C24.1936 15.0175 24.1952 15.0399 24.1888 15.0623C24.1824 15.0847 24.1648 15.1519 24.152 15.1983C24.1216 15.2944 24.0864 15.389 24.0464 15.4815C24.0064 15.5807 23.9568 15.6767 23.9056 15.7743C23.8544 15.8719 23.7968 15.9695 23.7312 16.0607C23.6656 16.1519 23.6016 16.2447 23.5344 16.3327C23.5008 16.3759 23.464 16.4175 23.4304 16.4591L23.3248 16.5791L23.2192 16.6927L23.112 16.7967C23.0448 16.8639 22.9744 16.9231 22.912 16.9791C22.8496 17.0351 22.7888 17.0831 22.736 17.1263C22.6832 17.1695 22.6352 17.2047 22.5968 17.2335L22.4688 17.3247Z" fill="white"/>
<path d="M21.1407 10.8349L22.3807 10.1133V11.0301L22.2975 10.2621L21.1407 10.8349Z" fill="#FAFAFA"/>
<path d="M21.24 18.041L21.3056 18.8378L22.4688 18.249L21.24 18.9594V18.041Z" fill="#FAFAFA"/>
<path d="M25.0256 7.23394L25.1296 5.86914L25.2336 7.23394L26.5984 7.33794L25.2336 7.44194L25.1296 8.80674L25.0256 7.44194L23.6608 7.33794L25.0256 7.23394Z" fill="white"/>
<path d="M26.1696 8.39873L26.2192 7.73633L26.2704 8.39873L26.9312 8.44833L26.2704 8.49953L26.2192 9.16033L26.1696 8.49953L25.5072 8.44833L26.1696 8.39873Z" fill="white"/>
<path d="M59.3472 45.8938L58.416 46.2394L58.224 45.5898L59.0096 45.6058L59.3472 45.8938Z" fill="black"/>
<path d="M58.9472 44.0703C58.9472 44.0703 59.3792 44.4815 59.5136 44.6143C59.648 44.7471 59.4336 45.6943 59.3536 45.8943L59.016 45.6063C59.0244 45.884 59.069 46.1594 59.1488 46.4255C59.2128 46.7215 59.408 47.2255 59.3184 47.7487C59.1872 48.5327 58.6176 49.3615 57.8784 50.0399C57.1392 50.7183 56.5392 50.9119 56.1744 50.9391C55.8096 50.9663 55.5712 50.8383 55.4528 50.6063C55.3344 50.3743 58.9472 44.0703 58.9472 44.0703Z" fill="#263238"/>
<path d="M55.5296 44.3195L55.2864 44.0731C55.1424 44.1899 55.4656 44.5707 55.5584 45.0667C55.7089 45.8032 55.7595 46.5567 55.7088 47.3067C55.5632 48.6427 55.2672 49.6571 55.2064 50.2555C55.1216 51.0555 56.5328 51.0107 57.7136 49.8811C58.2992 49.3195 59.1184 48.0843 59.1008 47.4715C59.0832 46.8587 58.768 46.1515 58.7808 45.6859C58.7936 45.2203 59.0832 44.5115 58.9504 44.0715C58.8768 43.8299 58.4704 43.4715 58.1024 43.1787C57.7696 42.9099 57.4624 42.2987 57.3152 42.4923L57.4464 42.7003C57.4976 42.8987 57.3968 43.3755 56.9744 43.8827C56.76 44.1339 56.04 44.7883 55.5296 44.3195Z" fill="#455A64"/>
<path opacity="0.15" d="M56.584 44.2363C56.328 44.4203 56.0032 44.5563 55.712 44.4427H55.7024C55.7958 44.5171 55.8705 44.6123 55.9208 44.7206C55.9711 44.8289 55.9954 44.9474 55.992 45.0667C56.0016 45.5051 56.232 48.4667 56.232 48.4667C56.232 48.4667 56.1904 45.8971 56.1872 45.4091C56.1872 44.6875 56.2576 44.5403 56.5856 44.2395L56.584 44.2363Z" fill="black"/>
<path d="M55.2 50.2555C55.2512 49.7499 55.4704 48.9483 55.624 47.9051C55.6784 48.2251 55.632 48.5451 55.6752 48.6251C55.7792 48.8315 56.504 48.6251 56.8896 48.4379C57.2752 48.2507 57.2288 47.5211 57.328 46.7419C57.4272 45.9627 58.2528 46.0683 58.912 46.4779C59.0087 46.8015 59.0699 47.1347 59.0944 47.4715C59.112 48.0843 58.2944 49.3195 57.7072 49.8811C56.5328 51.0107 55.1216 51.0571 55.2 50.2555Z" fill="#37474F"/>
<path opacity="0.15" d="M56.7072 44.9595C56.7263 44.978 56.7519 44.9883 56.7784 44.9883C56.805 44.9883 56.8305 44.978 56.8496 44.9595C56.859 44.9507 56.8665 44.94 56.8716 44.9282C56.8768 44.9164 56.8794 44.9036 56.8794 44.8907C56.8794 44.8778 56.8768 44.8651 56.8716 44.8532C56.8665 44.8414 56.859 44.8308 56.8496 44.8219C56.8303 44.8033 56.8045 44.793 56.7776 44.793C56.7508 44.793 56.725 44.8033 56.7056 44.8219C56.6961 44.8307 56.6886 44.8414 56.6834 44.8533C56.6783 44.8653 56.6758 44.8781 56.6759 44.8911C56.6761 44.904 56.6789 44.9168 56.6843 44.9286C56.6897 44.9404 56.6975 44.9509 56.7072 44.9595Z" fill="black"/>
<path opacity="0.15" d="M56.7008 45.6695C56.7213 45.6866 56.7476 45.6953 56.7744 45.6939C56.8011 45.6924 56.8263 45.6808 56.8448 45.6615C56.854 45.6525 56.8613 45.6418 56.8663 45.63C56.8713 45.6182 56.8738 45.6055 56.8738 45.5927C56.8738 45.5798 56.8713 45.5671 56.8663 45.5553C56.8613 45.5435 56.854 45.5328 56.8448 45.5239C56.8246 45.5059 56.7981 45.4967 56.7712 45.4982C56.7442 45.4997 56.7189 45.5118 56.7008 45.5319C56.6916 45.5408 56.6843 45.5515 56.6793 45.5633C56.6743 45.5751 56.6718 45.5878 56.6718 45.6007C56.6718 45.6135 56.6743 45.6262 56.6793 45.638C56.6843 45.6498 56.6916 45.6605 56.7008 45.6695Z" fill="black"/>
<path opacity="0.15" d="M56.696 46.3728C56.7154 46.3913 56.7412 46.4017 56.768 46.4017C56.7949 46.4017 56.8207 46.3913 56.84 46.3728C56.8488 46.3632 56.8555 46.3519 56.8599 46.3397C56.8642 46.3274 56.866 46.3144 56.8653 46.3015C56.8645 46.2885 56.8612 46.2758 56.8555 46.2642C56.8498 46.2525 56.8418 46.2421 56.832 46.2336C56.8115 46.2164 56.7852 46.2077 56.7585 46.2091C56.7317 46.2106 56.7066 46.2222 56.688 46.2416C56.6721 46.2602 56.664 46.2843 56.6655 46.3088C56.667 46.3333 56.6779 46.3562 56.696 46.3728Z" fill="black"/>
<path opacity="0.15" d="M56.6896 47.0767C56.7102 47.0939 56.7365 47.1026 56.7632 47.1012C56.7899 47.0997 56.8151 47.0881 56.8336 47.0687C56.843 47.0599 56.8505 47.0493 56.8556 47.0374C56.8607 47.0256 56.8634 47.0128 56.8634 46.9999C56.8634 46.9871 56.8607 46.9743 56.8556 46.9625C56.8505 46.9506 56.843 46.94 56.8336 46.9311C56.8145 46.9127 56.789 46.9023 56.7624 46.9023C56.7358 46.9023 56.7103 46.9127 56.6912 46.9311C56.6806 46.94 56.6721 46.9511 56.6662 46.9636C56.6603 46.9761 56.6571 46.9898 56.657 47.0036C56.6568 47.0174 56.6597 47.0311 56.6653 47.0437C56.6709 47.0564 56.6792 47.0676 56.6896 47.0767Z" fill="black"/>
<path opacity="0.15" d="M56.6848 47.7795C56.705 47.7975 56.7314 47.8067 56.7584 47.8052C56.7854 47.8037 56.8107 47.7916 56.8288 47.7715C56.8375 47.7621 56.8442 47.751 56.8485 47.7388C56.8528 47.7267 56.8546 47.7139 56.8539 47.7011C56.8531 47.6882 56.8498 47.6757 56.8441 47.6641C56.8384 47.6526 56.8305 47.6423 56.8208 47.6339C56.8002 47.6168 56.7739 47.6081 56.7472 47.6095C56.7205 47.611 56.6953 47.6226 56.6768 47.6419C56.6681 47.6514 56.6614 47.6625 56.6571 47.6746C56.6527 47.6868 56.6509 47.6996 56.6517 47.7124C56.6524 47.7253 56.6557 47.7378 56.6614 47.7494C56.6671 47.7609 56.675 47.7711 56.6848 47.7795Z" fill="black"/>
<path d="M56.8001 44.921C56.8063 44.9138 56.8102 44.9049 56.8113 44.8954C56.8109 44.8848 56.8066 44.8746 56.7992 44.8669C56.7918 44.8593 56.7819 44.8546 56.7713 44.8538C56.7425 44.8538 56.0625 44.8282 55.6097 45.2634C55.6058 45.267 55.6028 45.2713 55.6007 45.2761C55.5986 45.281 55.5975 45.2862 55.5975 45.2914C55.5975 45.2966 55.5986 45.3018 55.6007 45.3067C55.6028 45.3115 55.6058 45.3158 55.6097 45.3194C55.6176 45.3265 55.6278 45.3304 55.6385 45.3304C55.6491 45.3304 55.6593 45.3265 55.6673 45.3194C56.0961 44.9082 56.7617 44.9322 56.7681 44.9338C56.774 44.9339 56.7798 44.9328 56.7853 44.9306C56.7908 44.9284 56.7958 44.9251 56.8001 44.921Z" fill="#263238"/>
<path d="M56.8001 45.6242C56.8069 45.6173 56.8109 45.6082 56.8113 45.5986C56.8115 45.5933 56.8107 45.5881 56.8088 45.5831C56.807 45.5782 56.8043 45.5737 56.8007 45.5698C56.7971 45.5659 56.7928 45.5628 56.7881 45.5606C56.7833 45.5584 56.7781 45.5572 56.7729 45.557C56.7441 45.557 56.0641 45.5298 55.6113 45.9666C55.6077 45.9701 55.6048 45.9744 55.6029 45.979C55.601 45.9837 55.6 45.9887 55.6 45.9938C55.6 45.9988 55.601 46.0038 55.6029 46.0085C55.6048 46.0132 55.6077 46.0174 55.6113 46.021C55.615 46.0248 55.6195 46.0279 55.6244 46.03C55.6294 46.0321 55.6347 46.0332 55.6401 46.0332C55.6454 46.0332 55.6508 46.0321 55.6557 46.03C55.6607 46.0279 55.6651 46.0248 55.6689 46.021C56.0961 45.6114 56.7617 45.6354 56.7697 45.6354C56.7753 45.6359 56.7809 45.6352 56.7862 45.6333C56.7914 45.6314 56.7962 45.6282 56.8001 45.6242Z" fill="#263238"/>
<path d="M56.7999 46.3273C56.8068 46.3205 56.8108 46.3113 56.8111 46.3017C56.8112 46.2909 56.807 46.2806 56.7995 46.2728C56.7921 46.2651 56.7819 46.2605 56.7711 46.2601C56.7423 46.2601 56.0639 46.2329 55.6095 46.6697C55.6058 46.6731 55.6027 46.6773 55.6007 46.682C55.5986 46.6867 55.5975 46.6918 55.5975 46.6969C55.5975 46.702 55.5986 46.7071 55.6007 46.7118C55.6027 46.7164 55.6058 46.7206 55.6095 46.7241C55.6133 46.728 55.6178 46.731 55.6227 46.7332C55.6276 46.7353 55.633 46.7363 55.6383 46.7363C55.6437 46.7363 55.649 46.7353 55.654 46.7332C55.6589 46.731 55.6634 46.728 55.6671 46.7241C56.0943 46.3145 56.7615 46.3385 56.7679 46.3385C56.7738 46.3392 56.7797 46.3386 56.7852 46.3366C56.7908 46.3347 56.7958 46.3315 56.7999 46.3273Z" fill="#263238"/>
<path d="M56.7873 47.0308C56.791 47.0276 56.7939 47.0237 56.7958 47.0193C56.7978 47.0148 56.7987 47.01 56.7985 47.0052C56.7987 47 56.7978 46.9948 56.796 46.99C56.7942 46.9851 56.7914 46.9807 56.7878 46.977C56.7842 46.9732 56.7799 46.9703 56.7751 46.9682C56.7704 46.9662 56.7652 46.9652 56.7601 46.9652C56.7313 46.9652 56.0513 46.938 55.5985 47.3732C55.5911 47.3807 55.587 47.3907 55.587 47.4012C55.587 47.4117 55.5911 47.4217 55.5985 47.4292C55.6064 47.4363 55.6166 47.4402 55.6273 47.4402C55.6379 47.4402 55.6481 47.4363 55.6561 47.4292C56.0833 47.018 56.7505 47.0436 56.7569 47.0436C56.7683 47.0435 56.7792 47.0389 56.7873 47.0308Z" fill="#263238"/>
<path d="M56.7824 47.7335C56.7889 47.7266 56.7929 47.7175 56.7936 47.7079C56.7938 47.7027 56.793 47.6974 56.7911 47.6925C56.7893 47.6876 56.7866 47.6831 56.783 47.6792C56.7794 47.6753 56.7751 47.6722 56.7704 47.67C56.7656 47.6678 56.7604 47.6666 56.7552 47.6664C56.7264 47.6664 56.0464 47.6391 55.592 48.0743C55.5882 48.0778 55.5852 48.082 55.5831 48.0867C55.581 48.0914 55.58 48.0964 55.58 48.1016C55.58 48.1067 55.581 48.1117 55.5831 48.1164C55.5852 48.1211 55.5882 48.1253 55.592 48.1287C55.5957 48.1326 55.6002 48.1357 55.6051 48.1378C55.6101 48.1399 55.6154 48.141 55.6208 48.141C55.6261 48.141 55.6315 48.1399 55.6364 48.1378C55.6414 48.1357 55.6458 48.1326 55.6496 48.1287C56.0784 47.7191 56.744 47.7431 56.7504 47.7431C56.7561 47.7438 56.7618 47.7432 56.7673 47.7416C56.7728 47.7399 56.7779 47.7372 56.7824 47.7335Z" fill="#263238"/>
<path d="M45.1632 25.1426C45.0449 27.0198 45.0321 28.9023 45.1248 30.781C45.2544 33.8018 45.4272 35.2434 46.8304 37.0738C48.0832 38.709 54.9536 44.2274 55.5056 44.7858C55.5056 44.7858 57.7456 44.8274 57.6864 42.6322C57.6864 42.6322 55.9952 39.765 54.8672 37.8194C53.7392 35.8738 52.3344 35.0034 52.3344 35.0034L53.4992 26.1042L45.1632 25.1426Z" fill="#263238"/>
<path d="M52.7136 26.0316L53.4944 26.1052V26.1372L52.3744 34.718L52.3312 34.934H52.3456L52.3376 34.9996C53.1126 35.5394 53.7864 36.2116 54.328 36.9852C54.0768 37.766 53.5632 39.1388 53.5632 39.1388C53.5248 39.35 54.2032 40.1532 54.0432 42.7228C54.032 42.9084 54.0048 43.1772 53.9728 43.4668C52.2784 42.0476 49.9728 40.1068 48.4048 38.6668C48.304 38.2732 47.9952 36.9772 48.04 35.9676C48.0848 34.958 48.1904 30.0124 48.1904 30.0124C47.7208 29.7752 47.2988 29.4536 46.9456 29.0636C46.6522 28.7527 46.4366 28.3765 46.3168 27.966C46.0236 27.3269 45.7719 26.6696 45.5632 25.998L52.7136 26.0316Z" fill="black"/>
<path d="M51.1456 54.1414L50.1968 53.8438L50.4704 53.2246L51.0704 53.7126L51.1456 54.1414Z" fill="black"/>
<path d="M52.0256 52.4805C52.0256 52.4805 52.0944 53.0629 52.1121 53.2453C52.1297 53.4277 51.344 54.0341 51.1521 54.1381L51.0768 53.7093C50.9028 53.9288 50.7576 54.1697 50.6448 54.4261C50.5024 54.6949 50.3248 55.1989 49.9136 55.5541C49.2992 56.0837 48.3136 56.3797 47.2976 56.4597C46.2816 56.5397 45.6848 56.3221 45.3776 56.1221C45.0704 55.9221 44.9728 55.6773 45.032 55.4261C45.0912 55.1749 52.0256 52.4805 52.0256 52.4805Z" fill="#263238"/>
<path d="M49.1984 50.6103L49.1696 50.2727C48.9808 50.2727 48.984 50.7671 48.7328 51.2087C48.3662 51.8713 47.9149 52.4834 47.3904 53.0295C46.4048 53.9783 45.512 54.5847 45.072 55.0119C44.4832 55.5815 45.6112 56.4007 47.2688 56.2423C48.0928 56.1623 49.5376 55.7015 49.9248 55.2151C50.312 54.7287 50.528 53.9895 50.84 53.6343C51.152 53.2791 51.8416 52.9079 52.0256 52.4855C52.128 52.2535 52.04 51.7271 51.9504 51.2791C51.8672 50.8695 52.0256 50.2087 51.7904 50.2695L51.7552 50.5111C51.6656 50.6951 51.2752 51.0039 50.616 51.1399C50.2816 51.2087 49.2928 51.2791 49.1984 50.6103Z" fill="#455A64"/>
<path opacity="0.15" d="M50.08 51.1803C49.76 51.1675 49.4144 51.0811 49.2672 50.8107V50.8027C49.2917 50.9191 49.2881 51.0396 49.2566 51.1542C49.2252 51.2689 49.1668 51.3744 49.0864 51.4619C48.8 51.8091 47.04 54.2411 47.04 54.2411C47.04 54.2411 48.6864 52.2235 49.0032 51.8411C49.4704 51.2779 49.624 51.2011 50.0768 51.1739L50.08 51.1803Z" fill="black"/>
<path d="M45.0719 55.0108C45.4431 54.6492 46.1375 54.1596 46.9391 53.446C46.7791 53.7228 46.5295 53.9436 46.5087 54.0348C46.4543 54.2588 47.1487 54.5372 47.5759 54.6252C48.0031 54.7132 48.4399 54.1212 49.0255 53.5772C49.6111 53.0332 50.1855 53.6156 50.4303 54.3324C50.2937 54.6434 50.1242 54.939 49.9247 55.214C49.5375 55.694 48.0927 56.1612 47.2687 56.2412C45.6111 56.3996 44.4799 55.5804 45.0719 55.0108Z" fill="#37474F"/>
<path opacity="0.15" d="M49.696 51.8203C49.7011 51.8464 49.7161 51.8695 49.7379 51.8848C49.7597 51.9 49.7866 51.9062 49.8128 51.9019C49.8257 51.9002 49.8381 51.8959 49.8493 51.8893C49.8605 51.8826 49.8702 51.8739 49.878 51.8634C49.8857 51.853 49.8913 51.8411 49.8944 51.8285C49.8975 51.8159 49.8981 51.8028 49.896 51.7899C49.891 51.7638 49.8759 51.7407 49.8542 51.7255C49.8324 51.7103 49.8055 51.7041 49.7792 51.7083C49.7664 51.7101 49.754 51.7144 49.7428 51.721C49.7316 51.7276 49.7218 51.7364 49.7141 51.7468C49.7063 51.7573 49.7007 51.7691 49.6976 51.7818C49.6945 51.7944 49.694 51.8075 49.696 51.8203Z" fill="black"/>
<path opacity="0.15" d="M49.232 52.3631C49.2371 52.3892 49.2521 52.4123 49.2739 52.4275C49.2957 52.4428 49.3226 52.4489 49.3488 52.4447C49.3617 52.4429 49.3742 52.4386 49.3855 52.432C49.3967 52.4254 49.4066 52.4167 49.4144 52.4063C49.4223 52.3959 49.4281 52.384 49.4314 52.3714C49.4346 52.3588 49.4354 52.3456 49.4336 52.3327C49.4282 52.3068 49.4131 52.2839 49.3914 52.2687C49.3697 52.2536 49.343 52.2473 49.3168 52.2511C49.3038 52.2527 49.2912 52.2568 49.2798 52.2633C49.2685 52.2699 49.2585 52.2786 49.2506 52.2891C49.2427 52.2995 49.237 52.3115 49.2338 52.3242C49.2306 52.3369 49.23 52.3501 49.232 52.3631Z" fill="black"/>
<path opacity="0.15" d="M48.768 52.903C48.7731 52.9291 48.7881 52.9522 48.8099 52.9675C48.8317 52.9827 48.8586 52.9888 48.8848 52.9846C48.8979 52.983 48.9104 52.9789 48.9218 52.9723C48.9332 52.9658 48.9431 52.9571 48.951 52.9466C48.9589 52.9362 48.9647 52.9242 48.9679 52.9115C48.9711 52.8988 48.9717 52.8856 48.9696 52.8726C48.9646 52.8466 48.9495 52.8236 48.9276 52.8087C48.9058 52.7937 48.8789 52.7879 48.8528 52.7926C48.84 52.7942 48.8276 52.7983 48.8163 52.8047C48.805 52.8112 48.7952 52.8198 48.7873 52.83C48.7794 52.8403 48.7736 52.8521 48.7703 52.8646C48.767 52.8771 48.7662 52.8902 48.768 52.903Z" fill="black"/>
<path opacity="0.15" d="M48.3057 53.4395C48.3103 53.4655 48.325 53.4886 48.3466 53.5038C48.3681 53.5191 48.3948 53.5253 48.4209 53.5211C48.4339 53.5195 48.4464 53.5153 48.4578 53.5088C48.4692 53.5023 48.4791 53.4935 48.487 53.4831C48.495 53.4726 48.5007 53.4607 48.5039 53.448C48.5071 53.4353 48.5077 53.422 48.5057 53.4091C48.5006 53.383 48.4856 53.3599 48.4638 53.3446C48.442 53.3294 48.4151 53.3232 48.3888 53.3275C48.376 53.3292 48.3636 53.3335 48.3524 53.3402C48.3412 53.3468 48.3314 53.3555 48.3237 53.366C48.3159 53.3764 48.3104 53.3883 48.3073 53.4009C48.3042 53.4135 48.3036 53.4266 48.3057 53.4395Z" fill="black"/>
<path opacity="0.15" d="M47.8399 53.9869C47.8421 54.0001 47.8468 54.0126 47.8539 54.0239C47.8609 54.0351 47.8702 54.0449 47.8811 54.0525C47.892 54.0601 47.9043 54.0654 47.9173 54.0682C47.9303 54.0709 47.9437 54.0711 47.9567 54.0685C47.9696 54.067 47.9819 54.0629 47.9931 54.0564C48.0043 54.05 48.014 54.0413 48.0218 54.031C48.0296 54.0207 48.0352 54.009 48.0383 53.9964C48.0414 53.9839 48.042 53.9709 48.0399 53.9581C48.0353 53.9318 48.0203 53.9085 47.9984 53.8932C47.9765 53.8779 47.9494 53.8719 47.9231 53.8765C47.9103 53.8781 47.898 53.8822 47.8868 53.8887C47.8756 53.8951 47.8658 53.9038 47.8581 53.9141C47.8503 53.9244 47.8447 53.9361 47.8416 53.9487C47.8385 53.9612 47.8379 53.9742 47.8399 53.9869Z" fill="black"/>
<path d="M49.8016 51.8406C49.8114 51.8396 49.8206 51.8351 49.8272 51.8278C49.8345 51.8203 49.8386 51.8103 49.8386 51.7998C49.8386 51.7893 49.8345 51.7793 49.8272 51.7718C49.497 51.5032 49.0796 51.3654 48.6544 51.3846C48.6492 51.385 48.6441 51.3864 48.6395 51.3888C48.6349 51.3912 48.6308 51.3946 48.6275 51.3986C48.6242 51.4027 48.6218 51.4073 48.6204 51.4123C48.6189 51.4174 48.6185 51.4226 48.6192 51.4278C48.6208 51.4383 48.6263 51.4477 48.6346 51.4543C48.643 51.4608 48.6535 51.4639 48.664 51.463C49.0659 51.4476 49.4598 51.5783 49.7728 51.831C49.7767 51.8345 49.7813 51.8371 49.7862 51.8388C49.7912 51.8404 49.7964 51.841 49.8016 51.8406Z" fill="#263238"/>
<path d="M49.3376 52.3853C49.3473 52.3837 49.3562 52.3792 49.3632 52.3724C49.3706 52.365 49.3747 52.3549 49.3747 52.3445C49.3747 52.334 49.3706 52.3239 49.3632 52.3165C49.0338 52.0463 48.616 51.9078 48.1904 51.9276C48.1846 51.9274 48.1789 51.9285 48.1735 51.9307C48.1682 51.9329 48.1634 51.9363 48.1595 51.9406C48.1556 51.9448 48.1526 51.9499 48.1508 51.9554C48.1491 51.9609 48.1485 51.9667 48.1492 51.9725C48.1499 51.9782 48.1519 51.9838 48.1549 51.9887C48.158 51.9936 48.162 51.9978 48.1669 52.001C48.1717 52.0042 48.1772 52.0063 48.1829 52.0072C48.1886 52.008 48.1945 52.0077 48.2 52.0061C48.8 51.9469 49.304 52.3709 49.3088 52.3741C49.3169 52.381 49.327 52.3849 49.3376 52.3853Z" fill="#263238"/>
<path d="M48.8736 52.9286C48.8785 52.9285 48.8834 52.9273 48.8878 52.9251C48.8922 52.9229 48.8961 52.9197 48.8992 52.9158C48.9032 52.9125 48.9064 52.9084 48.9087 52.9036C48.9109 52.8989 48.912 52.8938 48.912 52.8886C48.912 52.8834 48.9109 52.8783 48.9087 52.8736C48.9064 52.8689 48.9032 52.8647 48.8992 52.8614C48.5705 52.5911 48.1531 52.4526 47.728 52.4726C47.7176 52.4738 47.7082 52.479 47.7016 52.4871C47.695 52.4951 47.6919 52.5054 47.6928 52.5158C47.6944 52.5263 47.6999 52.5357 47.7082 52.5423C47.7165 52.5488 47.727 52.5519 47.7376 52.551C48.3392 52.4918 48.8416 52.9158 48.8464 52.919C48.8539 52.9255 48.8636 52.9289 48.8736 52.9286Z" fill="#263238"/>
<path d="M48.4112 53.4717C48.4207 53.4697 48.4295 53.4653 48.4368 53.4589C48.4406 53.4553 48.4437 53.451 48.4457 53.4461C48.4478 53.4413 48.4489 53.4361 48.4489 53.4309C48.4489 53.4256 48.4478 53.4205 48.4457 53.4156C48.4437 53.4108 48.4406 53.4065 48.4368 53.4029C48.1079 53.1331 47.6905 52.9951 47.2656 53.0157C47.2605 53.0163 47.2557 53.0179 47.2513 53.0205C47.2468 53.023 47.243 53.0263 47.2398 53.0303C47.2367 53.0343 47.2344 53.0389 47.2331 53.0438C47.2317 53.0487 47.2314 53.0538 47.232 53.0589C47.2326 53.0639 47.2342 53.0688 47.2367 53.0732C47.2393 53.0776 47.2426 53.0815 47.2466 53.0846C47.2506 53.0878 47.2552 53.0901 47.2601 53.0914C47.265 53.0928 47.2701 53.0931 47.2752 53.0925C47.6774 53.0773 48.0714 53.2086 48.384 53.4621C48.3917 53.4683 48.4013 53.4717 48.4112 53.4717Z" fill="#263238"/>
<path d="M47.9472 54.0106C47.9521 54.0103 47.9569 54.009 47.9613 54.0068C47.9657 54.0046 47.9696 54.0015 47.9728 53.9978C47.9764 53.9942 47.9792 53.99 47.9812 53.9853C47.9831 53.9807 47.9841 53.9757 47.9841 53.9706C47.9841 53.9656 47.9831 53.9605 47.9812 53.9559C47.9792 53.9512 47.9764 53.947 47.9728 53.9434C47.6434 53.6733 47.2256 53.5348 46.8 53.5546C46.7896 53.5558 46.7799 53.5609 46.7731 53.569C46.7663 53.577 46.7628 53.5873 46.7632 53.5978C46.7652 53.6084 46.771 53.6179 46.7796 53.6244C46.7882 53.6309 46.7989 53.634 46.8096 53.633C47.4096 53.5738 47.912 53.9978 47.9184 54.001C47.9223 54.0045 47.9269 54.0071 47.9318 54.0088C47.9368 54.0104 47.942 54.011 47.9472 54.0106Z" fill="#263238"/>
<path d="M54.9888 24.6543C54.9888 24.6543 55.1856 26.3071 55.2496 27.3071C55.3794 29.0602 55.2276 30.8228 54.8 32.5279C54.48 33.9535 53.3184 38.7679 53.224 39.2719C53.4896 40.3407 53.6816 41.2191 53.4128 43.5999C53 47.2607 51.944 51.2111 51.944 51.2111C51.6528 51.6671 49.3696 51.5999 48.6768 51.0175C48.6768 51.0175 48.4576 40.3375 48.3568 38.1039C48.2704 36.1631 48.736 29.7455 48.736 29.7455C48.736 29.7455 45.6288 28.7359 45.12 25.3439L54.9888 24.6543Z" fill="#263238"/>
<path d="M46.9057 14.0176C45.8177 14.3808 45.3569 14.8896 44.3249 16.2816C43.3185 17.64 41.8545 19.6256 41.8545 19.6256L36.5121 19.0304L37.0513 21.7264C37.0513 21.7264 40.9185 22.696 42.1793 22.8592C43.1233 22.9824 43.6193 22.472 44.2401 21.7392C45.3457 20.4176 46.7569 18.4672 46.7569 18.4672L46.9057 14.0176Z" fill="#F0F0F0"/>
<path d="M52.32 13.2133C52.32 13.2133 49.1296 13.0853 47.2 13.8373C46.7712 13.9973 45.6544 14.9909 45.4096 17.7941C45.1088 21.2229 45.0896 25.6741 45.0896 25.6741C45.1744 25.9669 46.1552 27.5941 49.0992 28.0501C52.1392 28.5189 53.8752 28.3045 55.3808 27.1301C55.3808 24.4661 55.3888 24.2821 55.3968 22.2181C55.3968 20.8853 55.8 18.3189 56.0256 17.2037C56.1856 16.4197 56.0256 15.1237 55.536 14.8037C55.0208 14.4709 53.1072 13.7861 53.1072 13.7861C52.8079 13.6519 52.5398 13.4569 52.32 13.2133Z" fill="#FAFAFA"/>
<path d="M51.776 13.3493C52.0016 13.3493 52.1696 13.3493 52.256 13.3493C52.48 13.5884 52.7478 13.7823 53.0448 13.9205H53.0528C53.072 13.9205 54.9568 14.6021 55.4528 14.9221C55.8656 15.1893 56.0352 16.4021 55.88 17.1717C55.6624 18.2469 55.2528 20.8309 55.24 22.2149C55.24 22.9029 55.24 23.3829 55.24 23.8149C55.24 24.6629 55.2304 25.3333 55.232 27.0565C54.24 27.8101 53.168 28.1333 51.6608 28.1333C50.8083 28.1209 49.9579 28.0445 49.1168 27.9045C46.1344 27.4421 45.3056 25.8133 45.2288 25.6453C45.2288 25.2661 45.2672 21.0485 45.5488 17.8053C45.8304 14.5621 47.2352 13.9765 47.2496 13.9653C48.6896 13.4021 50.888 13.3429 51.768 13.3429M51.768 13.1973C50.7728 13.1973 48.632 13.2693 47.1968 13.8373C46.768 13.9973 45.6512 14.9909 45.4064 17.7941C45.1056 21.2229 45.0864 25.6741 45.0864 25.6741C45.1712 25.9669 46.152 27.5941 49.096 28.0501C49.9424 28.191 50.7981 28.268 51.656 28.2805C53.2208 28.2805 54.3504 27.9253 55.3712 27.1301C55.3712 24.4661 55.3792 24.2821 55.3872 22.2181C55.3872 20.8853 55.7904 18.3189 56.016 17.2037C56.176 16.4197 56.016 15.1237 55.5264 14.8037C55.0112 14.4709 53.0976 13.7861 53.0976 13.7861C52.8017 13.6507 52.537 13.4557 52.32 13.2133C52.32 13.2133 52.1152 13.2037 51.7776 13.2037L51.768 13.1973Z" fill="#E0E0E0"/>
<path d="M53.1296 6.73698C53.9664 7.80418 53.6096 8.97698 53.2128 10.1562C52.7552 11.497 52.7072 11.937 51.904 12.2362C52.3328 7.96738 50.576 12.6458 47.3408 9.11618C46.7552 8.47618 46.7648 6.81698 47.5664 6.01698C48.7008 4.88098 51.488 4.72098 53.1296 6.73698Z" fill="#37474F"/>
<path d="M53.1408 11.5637C52.5008 11.7877 52.2096 11.3317 52.2096 11.3317L52.1072 13.0037C52.1072 13.0037 52.9568 14.0757 52.056 14.3349C49.8368 14.9749 49.6768 15.4277 48.9664 16.1813C48.6368 15.5413 48.8432 14.5061 48.8272 14.1269L48.9088 12.8821C48.6536 12.8909 48.3984 12.8645 48.1504 12.8037C47.5104 12.6213 47.08 12.1461 46.944 11.2677C46.784 10.2069 46.944 8.53652 47.3952 7.10772C48.0848 6.62772 50.3504 6.69172 51.7152 7.63892C51.5952 8.81812 51.904 9.02772 51.8752 9.53652C51.8416 10.1093 51.8752 10.2421 52.0432 10.3365C52.2112 10.4309 52.3856 10.1653 52.4656 10.0005C52.6016 9.72532 52.7152 9.54932 52.9984 9.49492C53.2816 9.44052 53.5888 9.50612 53.8224 9.89652C54.176 10.4917 53.6 11.4021 53.1408 11.5637Z" fill="#FFA8A7"/>
<path d="M49.8481 9.20307C49.8448 9.2542 49.8567 9.30515 49.8823 9.34956C49.9078 9.39398 49.9459 9.42988 49.9917 9.45279C50.0376 9.4757 50.0891 9.4846 50.14 9.47838C50.1908 9.47217 50.2387 9.45111 50.2777 9.41784C50.3167 9.38457 50.345 9.34055 50.3591 9.2913C50.3732 9.24204 50.3724 9.18972 50.357 9.14087C50.3415 9.09202 50.3121 9.0488 50.2722 9.01661C50.2323 8.98442 50.1839 8.96468 50.1329 8.95987C50.0982 8.95702 50.0633 8.96107 50.0301 8.97177C49.997 8.98247 49.9663 8.99962 49.9399 9.02222C49.9134 9.04483 49.8917 9.07244 49.8759 9.10348C49.8601 9.13451 49.8507 9.16836 49.8481 9.20307Z" fill="#263238"/>
<path d="M49.736 10.8457L48.7872 11.0393C48.7976 11.1023 48.8205 11.1626 48.8545 11.2167C48.8886 11.2707 48.933 11.3175 48.9853 11.3541C49.0376 11.3908 49.0967 11.4166 49.1591 11.4302C49.2216 11.4437 49.286 11.4446 49.3488 11.4329C49.4768 11.4041 49.5886 11.3268 49.6607 11.2173C49.7329 11.1078 49.7599 10.9747 49.736 10.8457Z" fill="#B16668"/>
<path d="M49.6288 11.0527C49.5222 11.0528 49.4194 11.0919 49.3398 11.1627C49.2602 11.2334 49.2093 11.3309 49.1968 11.4367C49.2471 11.4448 49.2984 11.4448 49.3488 11.4367C49.4384 11.4172 49.5208 11.3732 49.5869 11.3097C49.653 11.2461 49.7001 11.1655 49.7232 11.0767C49.6927 11.0653 49.661 11.0573 49.6288 11.0527Z" fill="#F28F8F"/>
<path d="M47.5312 8.35253L48.24 7.99893C48.2175 7.95292 48.1861 7.91185 48.1476 7.87814C48.109 7.84444 48.0641 7.81879 48.0155 7.80269C47.9669 7.78659 47.9156 7.78037 47.8646 7.78439C47.8135 7.78842 47.7638 7.80261 47.7183 7.82613C47.6258 7.87331 47.5548 7.95416 47.52 8.05207C47.4851 8.14997 47.4891 8.25749 47.5312 8.35253Z" fill="#263238"/>
<path d="M50.08 8.27017L50.7088 8.75818C50.7409 8.71805 50.7647 8.67186 50.7787 8.62236C50.7927 8.57286 50.7966 8.52105 50.7902 8.47001C50.7838 8.41897 50.7672 8.36974 50.7414 8.32524C50.7156 8.28074 50.6811 8.24189 50.64 8.21097C50.5572 8.14622 50.4525 8.1162 50.348 8.12724C50.2435 8.13829 50.1474 8.18955 50.08 8.27017Z" fill="#263238"/>
<path d="M47.6576 8.95993C47.6548 9.01127 47.667 9.06232 47.6929 9.10674C47.7188 9.15117 47.7572 9.18701 47.8032 9.20981C47.8493 9.23262 47.9011 9.24139 47.9521 9.23502C48.0031 9.22866 48.0511 9.20745 48.0902 9.17402C48.1293 9.1406 48.1577 9.09644 48.1718 9.04701C48.186 8.99759 48.1854 8.9451 48.17 8.89604C48.1546 8.84699 48.1251 8.80354 48.0852 8.77109C48.0453 8.73864 47.9968 8.71863 47.9456 8.71353C47.8749 8.70865 47.8051 8.73174 47.7512 8.77783C47.6974 8.82391 47.6638 8.88931 47.6576 8.95993Z" fill="#263238"/>
<path d="M49.4145 8.73242L48.9761 10.4796L48.1425 10.0908C48.4273 9.49882 48.8881 9.12762 49.4145 8.73242Z" fill="#F28F8F"/>
<path d="M48.9088 12.882C49.616 12.882 50.608 12.722 51.0384 12.3796C51.4213 12.0883 51.7079 11.6886 51.8608 11.2324C51.8395 11.5304 51.7592 11.8212 51.6246 12.0879C51.49 12.3546 51.3038 12.5919 51.0768 12.786C50.464 13.3332 48.88 13.378 48.88 13.378L48.9088 12.882Z" fill="#F28F8F"/>
<path d="M54.4 14.2793C54.4 14.2793 54.0064 16.0249 54.2 17.3561C54.3936 18.6873 55.1776 19.3593 55.7472 20.0265C56.3168 20.6937 57.2464 21.5673 58.352 21.6265L58.56 18.1785C58.1203 17.4873 57.6394 16.8232 57.12 16.1897C56.3488 15.2441 56.264 14.9097 54.4 14.2793Z" fill="#F0F0F0"/>
<path opacity="0.1" d="M54.4 14.2793C54.4 14.2793 54.0064 16.0249 54.2 17.3561C54.3936 18.6873 55.1776 19.3593 55.7472 20.0265C56.3168 20.6937 57.2464 21.5673 58.352 21.6265L58.56 18.1785C58.1203 17.4873 57.6394 16.8232 57.12 16.1897C56.3488 15.2441 56.264 14.9097 54.4 14.2793Z" fill="black"/>
<path d="M48.9601 16.181C49.3009 15.7586 49.8193 14.8802 50.1201 14.6739C50.4209 14.4675 51.9057 13.7603 52.1057 13.0355L52.1345 12.6115C52.3393 12.5315 52.3889 13.0658 53.1089 13.7874C53.0974 14.3794 52.8917 14.9512 52.5233 15.4146C52.3282 15.6976 52.0642 15.9261 51.7563 16.0787C51.4483 16.2312 51.1066 16.3028 50.7633 16.2867C50.7633 16.2867 50.2609 15.3139 50.1233 15.2643C49.9857 15.2147 49.4017 15.869 48.9601 16.181Z" fill="#F0F0F0"/>
<path d="M48.96 16.1805C48.7728 15.8045 48.8 14.3885 48.8 14.3885L48.8736 13.3341C48.8736 13.3341 48.5536 13.3149 48.2992 13.7373C47.728 14.7133 47.7184 15.3773 47.7984 15.5645C48.024 15.1517 48.4688 14.9549 48.5456 15.0685C48.6224 15.1821 48.728 15.8397 48.96 16.1805Z" fill="#F0F0F0"/>
<path d="M56.1601 13.5805C55.8946 13.1397 55.7205 12.65 55.6481 12.1405C55.5825 11.5517 55.2033 10.9661 55.0785 10.7293C54.9537 10.4925 54.6673 10.1309 54.4561 9.79334C54.2449 9.45574 54.1825 9.36294 53.8273 9.25254C53.3473 9.10054 52.9601 8.97094 52.7569 9.00294C52.5537 9.03494 52.5425 9.16294 52.6897 9.36134C52.8369 9.55974 53.1857 9.64614 53.2929 9.69414C53.4001 9.74214 53.6273 9.88134 53.6273 9.88134L53.9969 10.6221C53.6749 10.6338 53.3541 10.668 53.0369 10.7245C52.8769 10.7869 52.6881 11.1661 52.7249 11.3933C52.7249 11.3933 52.4049 11.5533 52.4865 11.8477C52.4865 11.8477 52.2817 12.0525 52.3761 12.2557C52.4856 12.463 52.6182 12.6573 52.7713 12.8349C52.8561 12.9293 53.2305 12.9949 53.2305 12.9949C53.3621 13.2715 53.53 13.5292 53.7297 13.7613C53.9713 13.9965 54.1489 14.0077 54.3873 14.4637L56.1601 13.5805Z" fill="#FFA8A7"/>
<path d="M53.6432 10.6438C53.4688 10.5398 53.4448 10.4086 53.2608 10.4518C53.0768 10.495 53.1168 10.703 53.1168 10.703L53.6432 10.6438Z" fill="#F28F8F"/>
<path d="M52.7296 11.4134C52.8586 11.3306 52.9979 11.2649 53.144 11.2182C53.28 11.1734 53.56 11.1158 53.56 11.1158C53.3716 11.1061 53.1829 11.1244 53 11.1702C52.9061 11.1933 52.8145 11.2249 52.7264 11.2646C52.7208 11.3076 52.7208 11.3512 52.7264 11.3942L52.7296 11.4134Z" fill="#F28F8F"/>
<path d="M52.6689 11.6799C52.6037 11.6972 52.54 11.7197 52.4785 11.7471C52.4766 11.7907 52.4809 11.8343 52.4913 11.8767C52.6129 11.7455 53.0241 11.6367 53.0241 11.6367C52.9044 11.6381 52.7853 11.6526 52.6689 11.6799Z" fill="#F28F8F"/>
<path d="M53.288 13.1202C53.2101 12.8886 53.1099 12.6652 52.9888 12.453C52.9489 12.3934 52.8878 12.3513 52.8179 12.3353C52.748 12.3192 52.6747 12.3304 52.6128 12.3666C52.552 12.4338 52.808 12.4594 52.8768 12.501C53.045 12.6849 53.1838 12.8938 53.288 13.1202Z" fill="#F28F8F"/>
<path d="M54.2208 10.6327C54.2208 10.6327 54.1056 10.4103 53.8912 10.0551C53.6768 9.69993 53.688 9.74793 53.4464 9.66473C53.2048 9.58153 52.744 9.44073 52.64 9.26953C52.658 9.30191 52.6783 9.33292 52.7008 9.36233C52.8416 9.55113 53.1968 9.64713 53.304 9.69513C53.4112 9.74313 53.6384 9.88233 53.6384 9.88233L54.0192 10.6439L54.2208 10.6327Z" fill="#F28F8F"/>
<path d="M56.16 13.5801C56.8592 14.7001 58.7872 17.4297 59.1776 18.4649C59.4496 19.1801 59.3376 20.7449 58.888 21.2585C58.4384 21.7721 57.424 21.3945 56.6736 20.5337C56.0256 19.7897 55.6208 18.1545 55.2336 16.9769C54.8464 15.7993 54.3776 14.4681 54.3776 14.4681L56.16 13.5801Z" fill="#FFA8A7"/>
<path d="M54.6464 15.4043C54.6464 15.4043 55.5168 15.5083 56.0864 15.1851C56.4072 15.0208 56.6619 14.7514 56.808 14.4219C56.808 14.4219 58.3088 16.7019 58.728 17.3979C59.1472 18.0939 59.4976 18.5723 59.4208 19.6107C59.344 20.6491 59.2384 21.5675 58.4928 21.6299C57.7472 21.6923 56.9136 21.0315 56.4704 20.5099C56.0272 19.9883 55.168 17.5419 54.6464 15.4043Z" fill="#F0F0F0"/>
<path d="M56.16 13.5789C55.9999 13.2996 55.866 13.0061 55.76 12.7021C55.6496 12.3981 55.6528 12.0621 55.5536 11.7613C55.3336 11.1575 55.0234 10.5906 54.6336 10.0797C54.4384 9.83652 54.328 9.49252 54.0368 9.34852C53.8528 9.28292 52.4144 8.72132 52.6496 9.24292C52.8496 9.61412 53.3568 9.61412 53.656 9.86852L54.024 10.6109C54.0416 10.6493 54.048 10.6397 54.0048 10.6429C53.7146 10.654 53.4252 10.6796 53.1376 10.7197C52.9888 10.7197 52.9024 10.8557 52.8368 10.9805C52.7642 11.1088 52.7329 11.2563 52.7472 11.4029C52.6613 11.438 52.5903 11.5019 52.5465 11.5837C52.5027 11.6655 52.4888 11.76 52.5072 11.8509C52.4565 11.8954 52.4181 11.9522 52.3957 12.0158C52.3733 12.0794 52.3676 12.1477 52.3792 12.2141C52.4344 12.3381 52.5031 12.4556 52.584 12.5645C52.653 12.68 52.7418 12.7823 52.8464 12.8669C52.972 12.9237 53.1042 12.9646 53.24 12.9885C53.3706 13.2778 53.5461 13.5445 53.76 13.7789C54 13.9789 54.2624 14.1677 54.392 14.4669C54.2576 14.1677 53.9952 13.9869 53.752 13.7901C53.5371 13.5581 53.3595 13.2942 53.2256 13.0077C53.0922 12.9889 52.9623 12.9506 52.84 12.8941C52.7304 12.808 52.6372 12.7028 52.5648 12.5837C52.3872 12.3373 52.224 12.1037 52.4832 11.8349V11.8509C52.4637 11.7548 52.4775 11.655 52.5222 11.5677C52.567 11.4805 52.6401 11.4111 52.7296 11.3709L52.72 11.3901C52.7135 11.278 52.7295 11.1657 52.7672 11.0599C52.8048 10.9541 52.8633 10.8569 52.9392 10.7741C52.9922 10.7178 53.0638 10.6825 53.1408 10.6749C53.4304 10.6327 53.722 10.6054 54.0144 10.5933L53.9952 10.6253L53.624 9.88612C53.3536 9.68452 52.7968 9.61892 52.6192 9.26052C52.3632 8.63012 53.8368 9.22692 54.0592 9.30852C54.2047 9.38933 54.3232 9.5112 54.4 9.65892C54.8336 10.3341 55.3424 10.9757 55.5856 11.7533C55.6816 12.0621 55.6736 12.3933 55.7792 12.6973C55.8787 13.0023 56.0062 13.2974 56.16 13.5789Z" fill="#B16668"/>
<path d="M47.08 24.1604C47.0592 23.5668 46.6448 22.8724 46.1552 22.6068C45.9736 22.5044 45.7635 22.464 45.5568 22.4916C45.3376 22.5135 45.1166 22.4756 44.9172 22.3821C44.7178 22.2886 44.5474 22.1429 44.424 21.9604C44.0272 21.4164 44.016 20.6372 44 19.458C44 19.138 43.992 18.7828 43.9824 18.3972C42.2032 17.3332 40.3456 16.266 39.9248 16.4452L39.9056 16.4548C39.6784 16.5796 39.84 17.0276 40.0528 17.386C40.2078 17.6113 40.303 17.8722 40.3296 18.1444C40.3504 18.6564 39.776 18.754 39.0496 18.3668C38.3232 17.9796 37.7296 17.2468 37.7104 16.738C37.7043 16.6446 37.7227 16.5512 37.7636 16.467C37.8046 16.3829 37.8668 16.3108 37.944 16.258C38.1456 16.1188 38.2832 15.818 38.0144 15.426C37.5744 14.786 36.1824 14.1156 34.4096 13.2676V13.2804L34.4208 13.5924C34.4208 13.6932 34.4208 13.7908 34.4208 13.8884C34.4736 15.3828 34.4848 16.4484 34.0608 16.586C33.7408 16.6964 33.248 16.2836 32.9248 15.8948C32.7584 15.6804 32.5533 15.4991 32.32 15.3604C32.2358 15.3047 32.1388 15.2711 32.0382 15.2627C31.9375 15.2543 31.8363 15.2714 31.744 15.3124C31.5648 15.41 31.4576 15.6324 31.4688 15.9524C31.4896 16.5476 31.9024 17.2436 32.3936 17.506C32.5758 17.6086 32.7863 17.6496 32.9936 17.6228C33.2124 17.6005 33.4332 17.638 33.6324 17.7312C33.8316 17.8245 34.0018 17.97 34.1248 18.1524C34.6048 18.7924 34.6288 19.7828 34.6832 21.4084L34.696 21.7956C36.3136 22.7556 37.8464 23.6068 38.288 23.4148L38.3056 23.4068C38.5328 23.2852 38.3712 22.834 38.1584 22.4788C38.0055 22.2512 37.9105 21.9898 37.8816 21.7172C37.8656 21.2068 38.4368 21.1092 39.1616 21.498C39.8864 21.8868 40.4848 22.618 40.5008 23.1252C40.5064 23.2185 40.4879 23.3117 40.4469 23.3958C40.406 23.4799 40.3441 23.552 40.2672 23.6052C40.0672 23.7444 39.928 24.0452 40.2 24.4356C40.6016 25.0164 42.0672 25.7876 43.7648 26.6756C43.9248 26.762 44.096 26.8484 44.2672 26.9364C44.2512 26.586 44.2352 26.2484 44.216 25.9188C44.1456 24.594 44.0944 23.6388 44.4768 23.5076C44.7968 23.3972 45.2896 23.8116 45.6128 24.1988C45.7818 24.4158 45.9909 24.5983 46.2288 24.7364C46.3127 24.7929 46.4097 24.827 46.5106 24.8355C46.6114 24.8439 46.7127 24.8263 46.8048 24.7844C46.984 24.7076 47.0912 24.4804 47.08 24.1604Z" fill="#9E9E9E"/>
<path opacity="0.3" d="M47.08 24.1604C47.0592 23.5668 46.6448 22.8724 46.1552 22.6068C45.9736 22.5044 45.7635 22.464 45.5568 22.4916C45.3376 22.5135 45.1166 22.4756 44.9172 22.3821C44.7178 22.2886 44.5474 22.1429 44.424 21.9604C44.0272 21.4164 44.016 20.6372 44 19.458C44 19.138 43.992 18.7828 43.9824 18.3972C42.2032 17.3332 40.3456 16.266 39.9248 16.4452L39.9056 16.4548C39.6784 16.5796 39.84 17.0276 40.0528 17.386C40.2078 17.6113 40.303 17.8722 40.3296 18.1444C40.3504 18.6564 39.776 18.754 39.0496 18.3668C38.3232 17.9796 37.7296 17.2468 37.7104 16.738C37.7043 16.6446 37.7227 16.5512 37.7636 16.467C37.8046 16.3829 37.8668 16.3108 37.944 16.258C38.1456 16.1188 38.2832 15.818 38.0144 15.426C37.5744 14.786 36.1824 14.1156 34.4096 13.2676V13.2804L34.4208 13.5924C34.4208 13.6932 34.4208 13.7908 34.4208 13.8884C34.4736 15.3828 34.4848 16.4484 34.0608 16.586C33.7408 16.6964 33.248 16.2836 32.9248 15.8948C32.7584 15.6804 32.5533 15.4991 32.32 15.3604C32.2358 15.3047 32.1388 15.2711 32.0382 15.2627C31.9375 15.2543 31.8363 15.2714 31.744 15.3124C31.5648 15.41 31.4576 15.6324 31.4688 15.9524C31.4896 16.5476 31.9024 17.2436 32.3936 17.506C32.5758 17.6086 32.7863 17.6496 32.9936 17.6228C33.2124 17.6005 33.4332 17.638 33.6324 17.7312C33.8316 17.8245 34.0018 17.97 34.1248 18.1524C34.6048 18.7924 34.6288 19.7828 34.6832 21.4084L34.696 21.7956C36.3136 22.7556 37.8464 23.6068 38.288 23.4148L38.3056 23.4068C38.5328 23.2852 38.3712 22.834 38.1584 22.4788C38.0055 22.2512 37.9105 21.9898 37.8816 21.7172C37.8656 21.2068 38.4368 21.1092 39.1616 21.498C39.8864 21.8868 40.4848 22.618 40.5008 23.1252C40.5064 23.2185 40.4879 23.3117 40.4469 23.3958C40.406 23.4799 40.3441 23.552 40.2672 23.6052C40.0672 23.7444 39.928 24.0452 40.2 24.4356C40.6016 25.0164 42.0672 25.7876 43.7648 26.6756C43.9248 26.762 44.096 26.8484 44.2672 26.9364C44.2512 26.586 44.2352 26.2484 44.216 25.9188C44.1456 24.594 44.0944 23.6388 44.4768 23.5076C44.7968 23.3972 45.2896 23.8116 45.6128 24.1988C45.7818 24.4158 45.9909 24.5983 46.2288 24.7364C46.3127 24.7929 46.4097 24.827 46.5106 24.8355C46.6114 24.8439 46.7127 24.8263 46.8048 24.7844C46.984 24.7076 47.0912 24.4804 47.08 24.1604Z" fill="white"/>
<path d="M33.424 18.7898C33.1824 18.4522 33.2048 18.4074 33.3344 18.2362C33.433 18.099 33.5627 17.9873 33.7129 17.9103C33.8632 17.8332 34.0296 17.793 34.1984 17.793C34.496 17.8026 34.7952 17.793 34.9472 17.8746C35.0992 17.9562 34.9712 18.2762 34.584 18.3546C33.976 18.4906 33.9792 18.6554 33.9792 18.6554C34.2386 18.5961 34.5008 18.5502 34.7648 18.5178C35.0657 18.5387 35.3643 18.5842 35.6576 18.6538C35.9152 18.6938 35.9664 19.025 35.5312 19.1338L36.0016 19.209C36.3296 19.2618 36.4416 19.4378 36.184 19.641C36.0995 19.7104 35.9942 19.7498 35.8848 19.753C35.8848 19.753 36.2368 19.753 36.2432 19.8698C36.264 20.2042 36.048 20.2922 35.3392 20.497C35.0722 20.5561 34.836 20.7109 34.6752 20.9322L34.6912 21.377C34.6912 21.377 34.3856 21.1498 34.144 20.9834C33.9664 20.8602 33.8144 20.7226 33.8944 20.4458C33.8944 20.4458 33.5088 20.4458 33.4848 20.2138C33.48 20.0384 33.5121 19.8639 33.5792 19.7018C33.5098 19.6626 33.453 19.6045 33.4153 19.5342C33.3776 19.464 33.3607 19.3845 33.3664 19.305C33.3648 19.1536 33.4138 19.0061 33.5056 18.8858L33.424 18.7898Z" fill="#FFA8A7"/>
<path d="M35.5312 19.146C35.3905 19.1174 35.2475 19.1019 35.104 19.0996C34.9599 19.1217 34.8201 19.166 34.6896 19.2308C34.4303 19.3431 34.1809 19.4769 33.944 19.6308C34.2182 19.5585 34.4858 19.4632 34.744 19.346C34.8647 19.2851 34.9905 19.2347 35.12 19.1956C35.2432 19.1748 35.392 19.1732 35.5312 19.146Z" fill="#F28F8F"/>
<path d="M35.8848 19.7662C35.7346 19.7241 35.5765 19.7191 35.424 19.7518C35.2729 19.7849 35.1251 19.8315 34.9824 19.891C34.7018 20.007 34.4338 20.1512 34.1824 20.3214C34.4722 20.2301 34.7569 20.1233 35.0352 20.0014C35.3017 19.8718 35.5896 19.7921 35.8848 19.7662Z" fill="#F28F8F"/>
<path d="M62.104 4.4478C61.1583 4.83202 60.3477 5.48814 59.7749 6.33316C59.2021 7.17817 58.8928 8.1741 58.8862 9.19493C58.8796 10.2158 59.1759 11.2156 59.7377 12.068C60.2995 12.9204 61.1015 13.5869 62.0422 13.9834C62.9829 14.3798 64.0201 14.4883 65.0225 14.2952C66.0249 14.102 66.9475 13.6158 67.6736 12.8982C68.3996 12.1805 68.8964 11.2636 69.1012 10.2635C69.306 9.26343 69.2095 8.22506 68.824 7.2798C68.3063 6.01486 67.3085 5.00661 66.049 4.47582C64.7895 3.94502 63.371 3.93495 62.104 4.4478ZM62.2784 4.8782C63.1387 4.52808 64.0834 4.44091 64.9932 4.62772C65.903 4.81452 66.737 5.26692 67.3897 5.92769C68.0424 6.58847 68.4844 7.42795 68.66 8.33997C68.8356 9.252 68.7368 10.1956 68.3761 11.0515C68.0154 11.9074 67.409 12.637 66.6336 13.1483C65.8582 13.6595 64.9486 13.9294 64.0199 13.9237C63.0911 13.918 62.1849 13.637 61.4159 13.1162C60.6468 12.5955 60.0494 11.8584 59.6992 10.9982C59.2306 9.84454 59.2389 8.55202 59.7225 7.40453C60.2061 6.25704 61.1254 5.34841 62.2784 4.8782Z" fill="#455A64"/>
<path d="M62.2784 4.87851C61.4182 5.22879 60.6811 5.8263 60.1605 6.59548C59.6399 7.36465 59.359 8.27095 59.3535 9.19974C59.3479 10.1285 59.6179 11.0381 60.1294 11.8134C60.6408 12.5888 61.3706 13.195 62.2266 13.5556C63.0826 13.9161 64.0263 14.0147 64.9383 13.8389C65.8503 13.663 66.6897 13.2207 67.3503 12.5678C68.011 11.9149 68.4632 11.0808 68.6497 10.1709C68.8363 9.26105 68.7488 8.31628 68.3984 7.45611C67.9275 6.30363 67.0187 5.385 65.8714 4.90177C64.7241 4.41854 63.4319 4.41017 62.2784 4.87851Z" fill="white"/>
<path d="M58.0591 11.9681L59.8879 11.9377L59.1791 10.1953L57.8479 11.4513C57.804 11.4928 57.7736 11.5466 57.7608 11.6056C57.748 11.6647 57.7534 11.7262 57.7763 11.7822C57.7991 11.8381 57.8384 11.8858 57.8889 11.919C57.9394 11.9522 57.9987 11.9693 58.0591 11.9681Z" fill="#455A64"/>
<path d="M64.7552 11.2167H63.3424C63.3285 11.2169 63.3147 11.2143 63.3018 11.2091C63.2889 11.2039 63.2771 11.1961 63.2673 11.1863C63.2574 11.1764 63.2497 11.1647 63.2444 11.1518C63.2392 11.1389 63.2366 11.125 63.2368 11.1111C63.2366 11.0971 63.2392 11.0832 63.2444 11.0702C63.2496 11.0572 63.2574 11.0454 63.2672 11.0354C63.277 11.0254 63.2887 11.0175 63.3016 11.0121C63.3146 11.0067 63.3284 11.0039 63.3424 11.0039H64.7552C64.7692 11.0039 64.7831 11.0067 64.796 11.0121C64.8089 11.0175 64.8206 11.0254 64.8305 11.0354C64.8403 11.0454 64.848 11.0572 64.8533 11.0702C64.8585 11.0832 64.861 11.0971 64.8608 11.1111C64.861 11.125 64.8585 11.1389 64.8532 11.1518C64.848 11.1647 64.8402 11.1764 64.8304 11.1863C64.8205 11.1961 64.8088 11.2039 64.7959 11.2091C64.783 11.2143 64.7692 11.2169 64.7552 11.2167Z" fill="#455A64"/>
<path d="M64.0496 12.3208C63.8341 12.3208 63.6273 12.2351 63.4749 12.0827C63.3225 11.9303 63.2368 11.7235 63.2368 11.508C63.2366 11.494 63.2392 11.4802 63.2444 11.4673C63.2497 11.4544 63.2574 11.4427 63.2673 11.4328C63.2771 11.423 63.2889 11.4152 63.3018 11.41C63.3147 11.4047 63.3285 11.4021 63.3424 11.4024H64.7552C64.7692 11.4021 64.783 11.4047 64.7959 11.41C64.8088 11.4152 64.8205 11.423 64.8304 11.4328C64.8402 11.4427 64.848 11.4544 64.8532 11.4673C64.8585 11.4802 64.861 11.494 64.8608 11.508C64.8608 11.7232 64.7754 11.9297 64.6233 12.0821C64.4712 12.2345 64.2649 12.3203 64.0496 12.3208Z" fill="#455A64"/>
<path d="M65.5585 6.74118C65.3444 6.53601 65.0906 6.3768 64.8127 6.27335C64.5347 6.16989 64.2386 6.12437 63.9425 6.13958C63.3901 6.17332 62.8703 6.41255 62.4853 6.81021C62.1004 7.20787 61.8782 7.73517 61.8625 8.28838C61.8562 8.67485 61.9524 9.05609 62.1412 9.39333C62.3301 9.73057 62.6049 10.0118 62.9377 10.2084C63.0257 10.2588 63.0989 10.3315 63.15 10.4191C63.2011 10.5067 63.2283 10.6062 63.2289 10.7076C63.2284 10.7202 63.2306 10.7327 63.2351 10.7445C63.2397 10.7562 63.2466 10.7669 63.2554 10.7759C63.2643 10.7848 63.2748 10.7919 63.2865 10.7967C63.2982 10.8015 63.3107 10.8038 63.3233 10.8036H64.7745C64.7999 10.8036 64.8243 10.7935 64.8423 10.7755C64.8604 10.7575 64.8705 10.733 64.8705 10.7076C64.8715 10.6068 64.8985 10.5081 64.949 10.4209C64.9995 10.3337 65.0716 10.261 65.1585 10.21C65.4874 10.0162 65.7602 9.73996 65.9498 9.4086C66.1395 9.07725 66.2395 8.70218 66.2401 8.32038C66.2401 8.0246 66.1797 7.73193 66.0624 7.46035C65.9452 7.18878 65.7737 6.94405 65.5585 6.74118Z" fill="#9E9E9E"/>
<g opacity="0.35">
<path d="M65.5585 6.74118C65.3444 6.53601 65.0906 6.3768 64.8127 6.27335C64.5347 6.16989 64.2386 6.12437 63.9425 6.13958C63.3901 6.17332 62.8703 6.41255 62.4853 6.81021C62.1004 7.20787 61.8782 7.73517 61.8625 8.28838C61.8562 8.67485 61.9524 9.05609 62.1412 9.39333C62.3301 9.73057 62.6049 10.0118 62.9377 10.2084C63.0257 10.2588 63.0989 10.3315 63.15 10.4191C63.2011 10.5067 63.2283 10.6062 63.2289 10.7076C63.2284 10.7202 63.2306 10.7327 63.2351 10.7445C63.2397 10.7562 63.2466 10.7669 63.2554 10.7759C63.2643 10.7848 63.2748 10.7919 63.2865 10.7967C63.2982 10.8015 63.3107 10.8038 63.3233 10.8036H64.7745C64.7999 10.8036 64.8243 10.7935 64.8423 10.7755C64.8604 10.7575 64.8705 10.733 64.8705 10.7076C64.8715 10.6068 64.8985 10.5081 64.949 10.4209C64.9995 10.3337 65.0716 10.261 65.1585 10.21C65.4874 10.0162 65.7602 9.73996 65.9498 9.4086C66.1395 9.07725 66.2395 8.70218 66.2401 8.32038C66.2401 8.0246 66.1797 7.73193 66.0624 7.46035C65.9452 7.18878 65.7737 6.94405 65.5585 6.74118Z" fill="white"/>
</g>
<path d="M65.2593 8.77335C65.2453 8.72881 65.217 8.69012 65.1788 8.66323C65.1407 8.63634 65.0947 8.62275 65.0481 8.62455C64.9683 8.63432 64.8918 8.66217 64.8244 8.70598C64.7571 8.74979 64.7006 8.8084 64.6593 8.87735L64.6433 8.89975H64.6161C64.5007 8.85997 64.3926 8.8016 64.2961 8.72695C64.242 8.6867 64.1922 8.64114 64.1473 8.59095L64.1249 8.57015L64.1425 8.54295C64.2055 8.46882 64.2508 8.3813 64.2749 8.28703C64.299 8.19277 64.3013 8.09424 64.2817 7.99895C64.265 7.95132 64.234 7.91004 64.1929 7.88083C64.1517 7.85163 64.1025 7.83594 64.0521 7.83594C64.0016 7.83594 63.9524 7.85163 63.9113 7.88083C63.8701 7.91004 63.8391 7.95132 63.8225 7.99895C63.8037 8.09427 63.8065 8.19257 63.8306 8.28668C63.8547 8.38079 63.8995 8.46834 63.9617 8.54295L63.9793 8.57015L63.9569 8.59095C63.9119 8.64114 63.8621 8.6867 63.8081 8.72695C63.7115 8.8016 63.6034 8.85997 63.4881 8.89975H63.4609L63.4449 8.87735C63.4036 8.8084 63.3471 8.74979 63.2797 8.70598C63.2123 8.66217 63.1358 8.63432 63.0561 8.62455C63.0094 8.62275 62.9635 8.63634 62.9253 8.66323C62.8871 8.69012 62.8589 8.72881 62.8449 8.77335C62.8326 8.81066 62.8335 8.85106 62.8475 8.88777C62.8615 8.92447 62.8877 8.95526 62.9217 8.97495C63.0092 9.02804 63.1106 9.05368 63.2129 9.04855C63.2697 9.04832 63.3264 9.04351 63.3825 9.03415H63.4097L63.4225 9.05975C63.4716 9.15021 63.5123 9.24501 63.5441 9.34295C63.6533 9.75046 63.695 10.1732 63.6673 10.5941C63.6673 10.6661 63.6673 10.7365 63.6673 10.8053H63.7809V10.5846C63.8091 10.1537 63.7659 9.72123 63.6529 9.30455C63.6235 9.21336 63.5871 9.12457 63.5441 9.03895L63.5249 9.00055L63.5665 8.98455C63.6811 8.94245 63.7889 8.88369 63.8865 8.81015C63.9389 8.76975 63.9886 8.72592 64.0353 8.67895L64.0625 8.65015L64.0913 8.67895C64.1379 8.72597 64.1876 8.7698 64.2401 8.81015C64.3374 8.88403 64.4452 8.94282 64.5601 8.98455L64.6017 9.00055L64.5825 9.03895C64.5395 9.12457 64.5031 9.21336 64.4737 9.30455C64.3607 9.72125 64.3175 10.1537 64.3457 10.5846C64.3457 10.6566 64.3457 10.727 64.3457 10.7974H64.4577C64.4577 10.7286 64.4577 10.6582 64.4577 10.5798C64.4301 10.1609 64.4718 9.74031 64.5809 9.33495C64.6126 9.23701 64.6533 9.14221 64.7025 9.05175L64.7153 9.02615H64.7425C64.7985 9.03558 64.8552 9.04039 64.9121 9.04055C65.0143 9.04568 65.1157 9.02004 65.2033 8.96695C65.2319 8.94475 65.2527 8.91405 65.2628 8.87926C65.2728 8.84448 65.2716 8.8074 65.2593 8.77335ZM63.2609 8.93335H63.2113C63.1305 8.93781 63.0501 8.91952 62.9793 8.88055C62.9664 8.87318 62.956 8.862 62.9497 8.84854C62.9434 8.83507 62.9415 8.81998 62.9441 8.80535C62.9509 8.78315 62.9651 8.76394 62.9843 8.75085C63.0034 8.73777 63.0265 8.7316 63.0497 8.73335C63.1431 8.74559 63.2281 8.79381 63.2865 8.86775L63.3425 8.92695L63.2609 8.93335ZM64.0481 8.46935L64.0161 8.41495C63.9752 8.35945 63.9461 8.29622 63.9304 8.22911C63.9147 8.162 63.9128 8.09241 63.9249 8.02455C63.9325 7.9984 63.9489 7.97568 63.9714 7.96023C63.9938 7.94479 64.0209 7.93755 64.0481 7.93975C64.0754 7.93747 64.1028 7.94465 64.1255 7.96008C64.1482 7.97551 64.1649 7.99827 64.1729 8.02455C64.1849 8.09241 64.183 8.162 64.1673 8.22911C64.1517 8.29622 64.1225 8.35945 64.0817 8.41495L64.0481 8.46935ZM65.1201 8.88375C65.0486 8.92269 64.9677 8.94097 64.8865 8.93655H64.8385H64.7569L64.8129 8.87735C64.8713 8.80341 64.9562 8.75519 65.0497 8.74295C65.0728 8.74149 65.0957 8.74777 65.1148 8.76081C65.134 8.77386 65.1482 8.79291 65.1553 8.81495C65.1665 8.85015 65.1297 8.87415 65.1201 8.88375Z" fill="#FAFAFA"/>
</svg>
