<svg width="18" height="18" viewBox="0 0 18 18" fill="none" xmlns="http://www.w3.org/2000/svg">
<g id="Iconly/Light/Setting">
<g id="Setting">
<path id="Path_33946" fill-rule="evenodd" clip-rule="evenodd" d="M15.6046 5.71814L15.1377 4.90807C14.7428 4.22263 13.8676 3.98617 13.1812 4.37946V4.37946C12.8545 4.57194 12.4646 4.62654 12.0976 4.53124C11.7306 4.43594 11.4165 4.19857 11.2247 3.87146C11.1013 3.66354 11.035 3.42672 11.0325 3.18496V3.18496C11.0436 2.79734 10.8974 2.42173 10.6271 2.14368C10.3568 1.86563 9.98547 1.70882 9.5977 1.70898H8.6572C8.2773 1.70898 7.91306 1.86036 7.64507 2.12964C7.37709 2.39891 7.22745 2.76387 7.22928 3.14377V3.14377C7.21802 3.92812 6.57893 4.55804 5.7945 4.55795C5.55273 4.55544 5.31592 4.48914 5.108 4.36574V4.36574C4.42162 3.97244 3.54641 4.2089 3.15148 4.89434L2.65033 5.71814C2.25588 6.40272 2.48912 7.27738 3.17207 7.67466V7.67466C3.616 7.93096 3.88947 8.40462 3.88947 8.91722C3.88947 9.42982 3.616 9.90349 3.17207 10.1598V10.1598C2.48999 10.5544 2.25649 11.4269 2.65033 12.1094V12.1094L3.12402 12.9264C3.30906 13.2603 3.61953 13.5066 3.98672 13.611C4.35391 13.7154 4.74755 13.6691 5.08054 13.4824V13.4824C5.40788 13.2914 5.79796 13.2391 6.16408 13.3371C6.53019 13.435 6.842 13.6752 7.0302 14.0042C7.1536 14.2121 7.2199 14.4489 7.22242 14.6907V14.6907C7.22242 15.4831 7.86479 16.1255 8.6572 16.1255H9.5977C10.3874 16.1255 11.0287 15.4873 11.0325 14.6975V14.6975C11.0306 14.3165 11.1812 13.9504 11.4507 13.681C11.7202 13.4115 12.0862 13.2609 12.4673 13.2628C12.7085 13.2692 12.9443 13.3353 13.1538 13.455V13.455C13.8383 13.8494 14.713 13.6162 15.1103 12.9332V12.9332L15.6046 12.1094C15.7959 11.7811 15.8484 11.3899 15.7505 11.0227C15.6525 10.6555 15.4123 10.3424 15.0828 10.1529V10.1529C14.7534 9.9634 14.5131 9.65036 14.4152 9.28313C14.3173 8.91591 14.3698 8.52479 14.5611 8.1964C14.6855 7.97918 14.8656 7.79908 15.0828 7.67466V7.67466C15.7617 7.2776 15.9944 6.40805 15.6046 5.725V5.725V5.71814Z" stroke="black" stroke-width="1.125" stroke-linecap="round" stroke-linejoin="round"/>
<circle id="Ellipse_737" cx="9.13117" cy="8.91657" r="1.97712" stroke="black" stroke-width="1.125" stroke-linecap="round" stroke-linejoin="round"/>
</g>
</g>
</svg>
